<svg xmlns="http://www.w3.org/2000/svg" viewBox="0 0 61.75 74.57"><defs><style>.cls-1{fill:#a3cf62;}.cls-2{fill:#33b44a;}.cls-3{fill:#79c143;}.cls-4{fill:#866134;}</style></defs><g id="Capa_2" data-name="Capa 2"><g id="Layer_1" data-name="Layer 1"><path class="cls-1" d="M54.42,26.63A14.12,14.12,0,0,0,42,5.91a13.91,13.91,0,0,0-3.61.47A14.41,14.41,0,0,0,12.77,19.16,13.63,13.63,0,0,0,6.94,43.25a13.83,13.83,0,0,0-.2,2.33A13.2,13.2,0,0,0,26,57.36,9.85,9.85,0,0,0,43.33,55.5a15.31,15.31,0,0,0,2.55.21,15.8,15.8,0,0,0,8.54-29.08Z"/><path class="cls-2" d="M56,21.47c-.07.16-.15.32-.23.48l.16.11C55.94,21.87,56,21.67,56,21.47Z"/><path class="cls-2" d="M61.62,38.63A14.39,14.39,0,0,1,48,48.46a14.73,14.73,0,0,1-2.32-.18A9,9,0,0,1,29.8,50c-6.74,5.45-16.62-1.85-15.33-7.52-3.61-.52-6.31-5.79-6.31-10A13.11,13.11,0,0,1,18.77,19.61,13.88,13.88,0,0,1,31.86,1.17h.22A14.25,14.25,0,0,0,26.38,0,14.4,14.4,0,0,0,12.77,19.16,13.63,13.63,0,0,0,6.94,43.25a13.83,13.83,0,0,0-.2,2.33A13.22,13.22,0,0,0,20,58.81l.75,0,.26,0,.47,0,.33,0,.39-.06.35-.07.34-.07.39-.09.27-.07.42-.13.11,0a12.52,12.52,0,0,0,1.92-.8A9.85,9.85,0,0,0,43.33,55.5a15.31,15.31,0,0,0,2.55.21A15.79,15.79,0,0,0,61.67,39.92C61.67,39.48,61.65,39.06,61.62,38.63Z"/><path class="cls-2" d="M45.31,5.53a3.49,3.49,0,0,1,2.41-.69,3.47,3.47,0,0,1-.9,2.34,3.48,3.48,0,0,1-2.41.69A3.52,3.52,0,0,1,45.31,5.53Z"/><path class="cls-2" d="M8.61,25.86a3.48,3.48,0,0,1,2.5-.08,3.51,3.51,0,0,1-1.43,2,3.47,3.47,0,0,1-2.51.09A3.53,3.53,0,0,1,8.61,25.86Z"/><path class="cls-2" d="M43.61,33.1A3.48,3.48,0,0,1,46,32.28a3.52,3.52,0,0,1-.76,2.39,3.54,3.54,0,0,1-2.37.82A3.52,3.52,0,0,1,43.61,33.1Z"/><path class="cls-2" d="M41,15.55a3.49,3.49,0,0,1,.12,2.51,3.49,3.49,0,0,1-2.07-1.41A3.49,3.49,0,0,1,39,14.14,3.49,3.49,0,0,1,41,15.55Z"/><path class="cls-2" d="M42.85,17a3.48,3.48,0,0,1,2.32-.94,3.48,3.48,0,0,1-.64,2.42,3.52,3.52,0,0,1-2.32.95A3.5,3.5,0,0,1,42.85,17Z"/><path class="cls-3" d="M14.39,58.84a3.46,3.46,0,0,1-2.49-.28,3.49,3.49,0,0,1,1.71-1.83A3.52,3.52,0,0,1,16.1,57,3.49,3.49,0,0,1,14.39,58.84Z"/><path class="cls-3" d="M15.46,46.94a3.5,3.5,0,0,1,1-2.29,3.5,3.5,0,0,1,1.21,2.19,3.5,3.5,0,0,1-1,2.29A3.5,3.5,0,0,1,15.46,46.94Z"/><path class="cls-3" d="M19.63,30.46A3.5,3.5,0,0,1,19.14,28a3.51,3.51,0,0,1,2.26,1.09,3.47,3.47,0,0,1,.49,2.45A3.47,3.47,0,0,1,19.63,30.46Z"/><path class="cls-3" d="M20.21,34.46a3.5,3.5,0,0,1-2.51,0,3.49,3.49,0,0,1,1.51-2,3.5,3.5,0,0,1,2.51,0A3.49,3.49,0,0,1,20.21,34.46Z"/><path class="cls-3" d="M25.4,39a3.53,3.53,0,0,1,2.44-.6,3.55,3.55,0,0,1-1,2.31,3.5,3.5,0,0,1-2.44.59A3.53,3.53,0,0,1,25.4,39Z"/><path class="cls-3" d="M54.41,46.28a3.51,3.51,0,0,1-1.55,2,3.48,3.48,0,0,1-.64-2.42,3.47,3.47,0,0,1,1.54-2A3.49,3.49,0,0,1,54.41,46.28Z"/><path class="cls-2" d="M59.25,33.2a3.49,3.49,0,0,1-1.5-2,3.49,3.49,0,0,1,2.51,0,3.5,3.5,0,0,1,1.49,2A3.47,3.47,0,0,1,59.25,33.2Z"/><path class="cls-2" d="M59.25,30.4a3.46,3.46,0,0,1-2.18,1.23,3.48,3.48,0,0,1,.32-2.48,3.5,3.5,0,0,1,2.19-1.23A3.51,3.51,0,0,1,59.25,30.4Z"/><path class="cls-3" d="M.44,33.92a3.48,3.48,0,0,1-.35-2.49,3.52,3.52,0,0,1,2.19,1.22,3.51,3.51,0,0,1,.35,2.48A3.48,3.48,0,0,1,.44,33.92Z"/><path class="cls-3" d="M3,37.59A3.5,3.5,0,0,1,.8,38.77a3.47,3.47,0,0,1,.38-2.48,3.5,3.5,0,0,1,2.21-1.18A3.53,3.53,0,0,1,3,37.59Z"/><path class="cls-4" d="M33.18,52.46,34.54,54l5.83-5.77a.63.63,0,0,0,0-.87h0a.62.62,0,0,0-.86-.06Z"/><path class="cls-4" d="M33.18,57.86l-1.78,2L23.51,52a.67.67,0,0,1,0-.91l.21-.23a.65.65,0,0,1,.91-.07Z"/><path class="cls-4" d="M36.28,74.57H30.09L32.53,33a.66.66,0,0,1,.65-.62h0a.67.67,0,0,1,.66.62Z"/></g></g></svg>