<svg xmlns="http://www.w3.org/2000/svg" viewBox="0 0 35.68 53.95"><defs><style>.cls-1{fill:#a3cf62;}.cls-2{fill:#33b44a;}.cls-3{fill:#866134;}.cls-4{fill:#79c143;}</style></defs><g id="Capa_2" data-name="Capa 2"><g id="Layer_1" data-name="Layer 1"><path class="cls-1" d="M33.3,27.64a2.08,2.08,0,0,0,.11-.66,2.1,2.1,0,0,0-2.1-2.11,2.07,2.07,0,0,0-.5.06,3.61,3.61,0,0,0-6.66-1.54A3.9,3.9,0,0,0,22.51,23,4,4,0,0,0,18.57,27v.07a2.54,2.54,0,0,0,.62,5,2.35,2.35,0,0,0,.54-.06,3.93,3.93,0,0,0,3.37,1.9l.32,0a3.92,3.92,0,0,0,6.13-.07,3.61,3.61,0,1,0,3.75-6.16Z"/><path class="cls-2" d="M33,32.52A3,3,0,0,1,31.28,32a3.33,3.33,0,0,1-2.63,1.28,3.37,3.37,0,0,1-2.59-1.21h-.27a3.36,3.36,0,0,1-2.86-1.61,2.31,2.31,0,0,1-.46.05A2.16,2.16,0,0,1,22,26.25a.17.17,0,0,1,0-.07,3.36,3.36,0,0,1,1.78-3A4,4,0,0,0,22.51,23,4,4,0,0,0,18.57,27v.07a2.54,2.54,0,0,0,.62,5,2.35,2.35,0,0,0,.54-.06,3.93,3.93,0,0,0,3.37,1.9l.32,0a3.92,3.92,0,0,0,6.13-.07,3.61,3.61,0,0,0,5.54-2.1A3,3,0,0,1,33,32.52Z"/><path class="cls-1" d="M27.88,16.05a2.72,2.72,0,0,0-5.43-.21,2.22,2.22,0,1,0-1.78,3.55h.25v0A3,3,0,0,0,26.38,21a2.66,2.66,0,0,0,1.5.46,2.72,2.72,0,1,0,0-5.44Z"/><path class="cls-2" d="M28.58,20.3a2.37,2.37,0,0,1-1.31-.39,2.58,2.58,0,0,1-2.17,1.18,2.61,2.61,0,0,1-2.6-2.6v0h-.23A1.94,1.94,0,0,1,21.1,15a2,2,0,0,0-.43,0,2.22,2.22,0,0,0,0,4.44h.25v0A3,3,0,0,0,26.38,21a2.66,2.66,0,0,0,1.5.46,2.72,2.72,0,0,0,2.67-2.23A2.38,2.38,0,0,1,28.58,20.3Z"/><path class="cls-1" d="M24,3.74a3.55,3.55,0,0,0-.46,0,4.54,4.54,0,0,0-8.89-.28,2.62,2.62,0,0,0-1.36-.38A2.59,2.59,0,0,0,10.69,5.7a1.64,1.64,0,0,0,0,.22,4.54,4.54,0,1,0,4.53,7.61,4.54,4.54,0,0,0,8-.76,4.28,4.28,0,0,0,.72.07,4.55,4.55,0,1,0,0-9.1Z"/><path class="cls-2" d="M28.28,6.78c0,.14,0,.28,0,.43A3.83,3.83,0,0,1,24.47,11a4.21,4.21,0,0,1-.62,0,3.83,3.83,0,0,1-6.77.64,3.84,3.84,0,1,1-3.83-6.42c0-.07,0-.13,0-.19a2.2,2.2,0,0,1,.9-1.76,2.72,2.72,0,0,0-.86-.15A2.59,2.59,0,0,0,10.69,5.7a1.64,1.64,0,0,0,0,.22,4.54,4.54,0,1,0,4.53,7.61,4.54,4.54,0,0,0,8-.76,4.28,4.28,0,0,0,.72.07,4.55,4.55,0,0,0,4.55-4.55A4.44,4.44,0,0,0,28.28,6.78Z"/><path class="cls-3" d="M18.31,38l.85.62,6.61-9.51a.26.26,0,0,0-.06-.37l-.07-.05a.28.28,0,0,0-.38.05Z"/><path class="cls-3" d="M18.31,23.75l.73.53,5.62-8.09a.26.26,0,0,0-.06-.37h0a.26.26,0,0,0-.37.06Z"/><polygon class="cls-3" points="19.05 15.15 18.51 15.55 14.23 9.39 14.55 9.16 19.05 15.15"/><path class="cls-3" d="M20.05,54H17.36L18.43,6.79a.27.27,0,0,1,.27-.27h0a.27.27,0,0,1,.27.27Z"/><path class="cls-1" d="M22.33,23.39a4.15,4.15,0,0,0-4.15-4.15,3.71,3.71,0,0,0-.67.06,2.94,2.94,0,0,0,0-.51,3.41,3.41,0,0,0-5.66-2.55,4.55,4.55,0,0,0-8.14,1.87,2.75,2.75,0,0,0-2.19,4.14A3.95,3.95,0,0,0,6.26,28.6l0,0a5,5,0,0,0,8.56.51,3.12,3.12,0,0,0,1.46.35,3.21,3.21,0,0,0,3-2.05A4.15,4.15,0,0,0,22.33,23.39Z"/><path class="cls-2" d="M22.27,22.7a3.75,3.75,0,0,1-2.67,2.95,2.88,2.88,0,0,1-4,1.54,4.54,4.54,0,0,1-7.74-.46l0,0A3.57,3.57,0,0,1,3.57,21a2.55,2.55,0,0,1-.34-1.26,2.48,2.48,0,0,1,2.32-2.48A4.15,4.15,0,0,1,7.6,14.43a4.54,4.54,0,0,0-3.84,3.68,2.75,2.75,0,0,0-2.19,4.14A3.95,3.95,0,0,0,6.26,28.6l0,0a5,5,0,0,0,8.56.51,3.12,3.12,0,0,0,1.46.35,3.21,3.21,0,0,0,3-2.05,4.15,4.15,0,0,0,3-4A5.2,5.2,0,0,0,22.27,22.7Z"/><path class="cls-3" d="M18.74,31.61l-.75.55-5.84-8.39a.28.28,0,0,1,.07-.38h0a.28.28,0,0,1,.38.06Z"/><path class="cls-1" d="M24.86,4a2.13,2.13,0,0,1,1-1.15,2.16,2.16,0,0,1,.31,1.5,2.09,2.09,0,0,1-1,1.14A2.13,2.13,0,0,1,24.86,4Z"/><path class="cls-1" d="M10,9a2.16,2.16,0,0,1,1.37-.68,2.1,2.1,0,0,1-.28,1.5,2.14,2.14,0,0,1-1.37.68A2.16,2.16,0,0,1,10,9Z"/><path class="cls-4" d="M25.71,18a2.16,2.16,0,0,1,1.37-.68,2.1,2.1,0,0,1-.28,1.5,2.16,2.16,0,0,1-1.37.68A2.16,2.16,0,0,1,25.71,18Z"/><path class="cls-4" d="M20.65,3.91a2.19,2.19,0,0,1,.07,1.53,2.14,2.14,0,0,1-1.27-.86,2.19,2.19,0,0,1-.07-1.53A2.14,2.14,0,0,1,20.65,3.91Z"/><path class="cls-4" d="M28.87,26.68a2.13,2.13,0,0,1,.86,1.26,2.1,2.1,0,0,1-1.52-.07,2.1,2.1,0,0,1-.86-1.26A2.1,2.1,0,0,1,28.87,26.68Z"/><path class="cls-4" d="M23.09,7.21A2.18,2.18,0,0,1,24,8.47a2.13,2.13,0,0,1-1.53-.07,2.1,2.1,0,0,1-.86-1.26A2.13,2.13,0,0,1,23.09,7.21Z"/><path class="cls-2" d="M28.27,32.78a2.14,2.14,0,0,1-1.53-.06,2.15,2.15,0,0,1,1-1.18,2.11,2.11,0,0,1,1.53.05A2.16,2.16,0,0,1,28.27,32.78Z"/><path class="cls-2" d="M6.67,22.71a2.11,2.11,0,0,1-1-1.14,2.12,2.12,0,0,1,1.52-.13,2.12,2.12,0,0,1,1,1.15A2.14,2.14,0,0,1,6.67,22.71Z"/><path class="cls-1" d="M34.15,29.43a2.15,2.15,0,0,1-.91-1.23,2.14,2.14,0,0,1,1.53,0,2.14,2.14,0,0,1,.91,1.22A2.13,2.13,0,0,1,34.15,29.43Z"/><path class="cls-1" d="M33.52,25.85a2.18,2.18,0,0,1-1.33.75,2.11,2.11,0,0,1,.19-1.51,2.12,2.12,0,0,1,1.33-.75A2.11,2.11,0,0,1,33.52,25.85Z"/><path class="cls-2" d="M.83,20a2.1,2.1,0,0,1-.21-1.51A2.15,2.15,0,0,1,2,19.19a2.16,2.16,0,0,1,.21,1.51A2.15,2.15,0,0,1,.83,20Z"/><path class="cls-2" d="M6.65,29.56a2.12,2.12,0,0,1-1.35.72,2.16,2.16,0,0,1,.23-1.51,2.14,2.14,0,0,1,1.35-.71A2.13,2.13,0,0,1,6.65,29.56Z"/><path class="cls-2" d="M15.64,21.47a2.11,2.11,0,0,1-1.38.66,2.16,2.16,0,0,1,.3-1.5A2.16,2.16,0,0,1,15.94,20,2.16,2.16,0,0,1,15.64,21.47Z"/><path class="cls-2" d="M8.23,20.54a2.12,2.12,0,0,1,1-1.17,2.13,2.13,0,0,1,.34,1.49,2.13,2.13,0,0,1-1,1.16A2.1,2.1,0,0,1,8.23,20.54Z"/></g></g></svg>