<svg xmlns="http://www.w3.org/2000/svg" viewBox="0 0 606.07 605.68"><defs><style>.cls-1{fill:#fff;}</style></defs><g id="Capa_2" data-name="Capa 2"><g id="Layer_1" data-name="Layer 1"><path class="cls-1" d="M142.87,457.56,80.69,477.89l-23-41.9Q32.59,390.23,7.48,344.45C-7,317.93,0,294.25,26.44,279.76Q175.15,198.28,323.82,116.7c.51-.28,1.05-.48,2.2-1,1,1.59,2,3.15,2.92,4.79q44.74,81.44,89.61,162.81c2.76,5,2.4,7.9-1.87,11.33-12.74,10.21-25.32,20.62-37.88,31.05-2.57,2.13-4.34,2.05-7-.2-28.78-24-62-34.83-99.42-33.15-62.17,2.79-118.49,52.48-129.28,113.79A149.13,149.13,0,0,0,142.87,457.56ZM58,292c-18.38,0-32.33,14.16-32.22,32.67a32,32,0,0,0,32,31.86c18.15.16,32.43-14.14,32.5-32.52C90.24,306.08,76.05,292,58,292Z"/><path class="cls-1" d="M302.69,573.36q143.64,0,287.28.1c3.76,0,8,.63,11.16,2.43,4.67,2.66,6.24,14.64,3.79,22-1.87,5.66-5.52,7.76-13.62,7.76h-577c-10.62,0-14.3-3.63-14.34-14v-4.14C0,577,3.52,573.42,14.23,573.38c17.53-.07,35.07,0,52.61,0Z"/><path class="cls-1" d="M357.37,551.43c-25,0-50.05.16-75.08,0a121.16,121.16,0,0,1-116.72-92.61C148.93,390.55,197.71,321.55,268,314.64c46.7-4.59,84.08,12.78,111.17,50.9,21.43,30.17,48.35,53.07,82.44,67.55A202.37,202.37,0,0,1,480,442.34c35.86,19.73,32.83,56.82,18,79.7-11,17-27.84,25.78-47.32,27.75-18.54,1.88-37.34,1.34-56,1.66-12.42.2-24.83,0-37.25,0Zm1.1-21.42v-.09c26.2,0,52.39.18,78.59-.09,11.27-.12,22.29-2.12,32.29-7.9C490,510,493,481,474.59,465.94a97.88,97.88,0,0,0-22.74-13.38c-37.24-16.28-67.12-41.17-90.3-74.51-18.46-26.55-44.08-40.76-76.49-42.51-57-3.06-105.17,46.26-100.75,103.15,4,50.88,47.53,91.28,98.52,91.32Q320.65,530,358.47,530Z"/><path class="cls-1" d="M392.45,79c39.21-21.51,77.62-42.63,116.08-63.65,11-6,21.56-13,34.42-14.86,27.31-3.83,57.45,14.08,62.19,46.38,4,27.09-16.58,55.26-44.36,59.78-17.74,2.89-33.06-1.91-46.33-13.75-9.42-8.4-17.78-9.36-29.09-3.15l-59.45,32.66c-2.22,1.22-4.48,2.39-7.36,3.92-4.42-8-8.73-15.91-13.06-23.75S397,87.17,392.45,79Zm158.9,7.49A32.29,32.29,0,0,0,583.78,54.4c.16-17.64-14.27-32.28-32.13-32.59a32.21,32.21,0,0,0-32.52,32C519,72.31,532.91,86.42,551.35,86.51Z"/><path class="cls-1" d="M345.05,105.11l28.3-15.58c1.14,1.9,2.27,3.63,3.27,5.44,8.34,15.13,17.59,29.85,24.72,45.53,8.59,18.89,15.57,38.52,22.82,58,2.34,6.29-1.21,12.44-7.26,14.88s-12.13.16-15.81-6.44c-10.7-19.21-21.26-38.5-31.86-57.77C361.29,134.72,353.37,120.26,345.05,105.11Z"/><path class="cls-1" d="M91.49,497.49,148,478.43,162.09,507C146,512,130,517,113.84,521.73c-4.77,1.39-9.07-.4-11.65-4.83C98.47,510.49,95,503.92,91.49,497.49Z"/><path class="cls-1" d="M390.57,344.69l42.33-34.61c3.63,6.66,7.61,13.36,11,20.37,2.31,4.82.57,9.24-3.37,12.65-10.07,8.75-20.21,17.42-31.15,26.83C402.84,361.17,396.72,352.94,390.57,344.69Z"/><path class="cls-1" d="M358.82,508.54q-36.66,0-73.31,0c-40.41,0-72.66-27.2-79.42-66.92-6.26-36.76,22.16-76.58,60-83.07,32.27-5.54,58.77,4.81,77.66,31.88,25.67,36.8,58.68,64.35,99.94,82.08A83.61,83.61,0,0,1,459.17,481c8.7,6.22,8,18.59-1.86,22.44a78.1,78.1,0,0,1-25.77,4.87C407.31,509,383.06,508.55,358.82,508.54Zm-50.86-22c21,.22,37.73-16.33,38-37.58.24-20.49-16.65-37.62-37.26-37.8-21-.18-37.83,16-38.12,36.74C270.25,469.64,286.43,486.35,308,486.57Z"/><path class="cls-1" d="M561.92,54.77a10.74,10.74,0,0,1-11.24,10.28,10.72,10.72,0,0,1,1-21.41C557.77,43.78,562.15,48.55,561.92,54.77Z"/><path class="cls-1" d="M308.06,432.9a15.61,15.61,0,0,1,16.1,15.91c0,9.23-6.77,16.11-15.91,16.19a16.05,16.05,0,1,1-.19-32.1Z"/></g></g></svg>