<svg xmlns="http://www.w3.org/2000/svg" viewBox="0 0 1000 1000"><defs><style>.cls-1{fill:#a3cf62;}.cls-2{fill:#fff;}</style></defs><g id="Capa_2" data-name="Capa 2"><g id="Layer_1" data-name="Layer 1"><circle class="cls-1" cx="500" cy="500" r="500"/><path class="cls-2" d="M493.43,590.74c-20.2,0-38.43-.6-56.56.41-4.58.26-10.12,4.76-13.1,8.84q-52.23,71.52-103.67,143.6c-13.69,19.18-31.45,29.13-55.28,28.62-21.75-.47-43.51-.1-65-.1C191,747,205.75,724.74,231,723.84a5.93,5.93,0,0,1,1.33,0c31.6,6.35,50.64-7.79,67.42-34.34,25.57-40.45,55.72-78,83.4-117.12,7.5-10.61,15.78-17.91,31.21-16,0-21,0-41.21,0-61.48.05-21.48,8.23-29.64,29.77-29.8,12.88-.09,25.77-.09,38.66-.18a26.39,26.39,0,0,0,3.94-.88V366.93c-14.89,0-29.46.5-44-.29-4.53-.25-11.12-2.94-12.67-6.37s.69-10.47,3.7-13.6c55.45-57.64,111.29-114.91,167-172.34,7.37-7.6,14.3-7.84,21.66-.25q83.58,86.07,167,172.31c3.05,3.16,5.36,10.11,3.93,13.63s-8,6.36-12.42,6.6c-14.56.82-29.19.31-44.77.31v99.46c11.78,0,23.17-.1,34.55,0,22.94.25,31.75,8.72,31.93,31.19.21,26.66.1,53.32,0,80,0,3.9-.64,7.8-1.08,12.79H729.82v15.27c0,51.09-.36,102.19.26,153.28.14,11.91-3.7,15.14-15.21,15-34-.3-34,.13-34-33.2V591.83H649.8v13.89q0,73.31,0,146.62c0,3.55,1,7.65-.41,10.53-2.11,4.26-6,7.65-9.08,11.41-3.87-3.59-9.95-6.6-11.11-10.92-1.87-7-.5-14.81-.5-23.21H594.81c0,6.77.08,12.87,0,19-.13,7.77-2.5,15.78-11.34,14.3-4-.68-9.47-9.22-9.55-14.26-.74-47.53-.45-95.07-.46-142.61V591.74H542.56v14.39c0,51.54-.24,103.08.21,154.62.09,10-3.17,13-12.87,13.13-36.47.66-36.47.94-36.47-35V590.74Zm169-56.34c0-17.56.13-33.92,0-50.29-.3-30.84-22-53.47-51-53.35s-50.12,22.89-50.29,54c-.09,16.32,0,32.64,0,49.07H487.65V487.45h-51v68.08H781.29V521.76c0-35.56,0-35.31-35.6-34.17-8.12.26-11,2.82-10.66,10.9.51,11.79.13,23.63.13,35.91Zm-35,125.27V629.1H595.59v30.57Zm-31.54,24.7V715.5h31.73V684.37Zm-.16-80.4h31.84V591.54H595.74Z"/><path class="cls-2" d="M641,534.34H582.81c0-19.68-1-39.09.34-58.33,1.05-14.63,15.53-24.69,30.4-23.87a28.61,28.61,0,0,1,27.28,27.55C641.53,497.37,641,515.09,641,534.34Z"/></g></g></svg>