<?xml version="1.0" encoding="utf-8"?>
<!-- Generator: Adobe Illustrator 24.0.0, SVG Export Plug-In . SVG Version: 6.00 Build 0)  -->
<svg version="1.1" id="Capa_1" xmlns="http://www.w3.org/2000/svg" xmlns:xlink="http://www.w3.org/1999/xlink" x="0px" y="0px"
	 viewBox="0 0 870.4 160" style="enable-background:new 0 0 870.4 160;" xml:space="preserve">
<style type="text/css">
	.st0{fill:#FFFFFF;}
</style>
<title>logo-color</title>
<g>
	<rect y="0" class="st0" width="26.7" height="26.7"/>
	<rect y="53.3" class="st0" width="26.7" height="106.7"/>
	<rect y="133.3" class="st0" width="106.7" height="26.7"/>
	<rect x="133.3" y="133.3" class="st0" width="26.7" height="26.7"/>
	<rect x="133.3" y="0" class="st0" width="26.7" height="106.7"/>
	<rect x="53.3" y="0" class="st0" width="106.7" height="26.7"/>
	<rect x="53.3" y="53.3" class="st0" width="53.3" height="53.3"/>
	<path class="st0" d="M213.3,133.3V26.7h12.4v95.1H288v11.6H213.3z"/>
	<path class="st0" d="M351.2,26.7h2.8l52.6,106.7h-14.2l-9.4-18.5h-60.6l-9.4,18.5h-14L351.2,26.7z M353.3,51.9h-1.4l-22.6,49.4
		l-0.9,1.6H377l-0.9-1.6L353.3,51.9z"/>
	<path class="st0" d="M390.6,26.7h87.3v11.6h-37.5v95.1h-12.4V38.2h-37.3V26.7z"/>
	<path class="st0" d="M508.3,133.3h-12.4V26.7h12.4V133.3z"/>
	<path class="st0" d="M632,133.3h-3.7l-77-80.5v80.5h-12.4V26.7h3.7l77,80.2V26.7H632V133.3z"/>
	<path class="st0" d="M700.4,26.7h4.3l56,106.7h-29.2l-5.9-12.6h-46.4l-5.7,12.6h-29L700.4,26.7z M703.1,71.8h-1.4l-13.2,27.9
		l-1.6,2.8h30.9l-1.6-2.8L703.1,71.8z"/>
	<path class="st0" d="M813.9,133.3h-44.3V26.7h44.3c35.6,0,56.5,22.8,56.5,53.3C870.4,110.6,849.4,133.3,813.9,133.3z M795.4,48.9
		v62.2h16.5c18.5,0,31.8-10.5,31.8-31.1c0-20.6-13.3-31.1-31.8-31.1H795.4z"/>
</g>
</svg>
