<svg xmlns="http://www.w3.org/2000/svg" viewBox="0 0 1000 1000"><defs><style>.cls-1{fill:#ef4075;}.cls-2{fill:#fff;}</style></defs><g id="Capa_2" data-name="Capa 2"><g id="Layer_1" data-name="Layer 1"><circle class="cls-1" cx="500" cy="500" r="500"/><path class="cls-2" d="M531,685.87H408V333.13H530.47c.37,3.64.78,7.57,1.13,10.94q74-19.76,148.11-39.62c8.54-2.3,12.77,1.55,14.79,9.12,4.32,16.18,8.47,32.41,13,49.79L545.81,406.55c-4.3-15.71-8.45-30.84-12.6-46L531,361Z"/><path class="cls-2" d="M387.11,371.13v314.5H235.71V371.13Zm-74.85,28.35c-11.94,0-23.89.15-35.83-.05-8.21-.14-12.61,3.08-12.57,11.76q.17,35.82,0,71.65c0,8,3.8,11.78,11.48,11.81,23.89.08,47.77,0,71.66.07,8.44,0,12.17-4.16,12.15-12.42q-.11-35.26,0-70.54c0-8.94-4.35-12.67-13.27-12.37C334.66,399.76,323.46,399.48,312.26,399.48Z"/><path class="cls-2" d="M777.25,630.49l-162,43.27C596.87,603.38,578.76,534,560.32,463.32l162-43.25C740.57,490.07,758.68,559.39,777.25,630.49Z"/><path class="cls-2" d="M635.23,750.08,797,706.93c3.95,14.7,8.42,28.9,11.17,43.42.66,3.51-3.6,10.83-6.9,11.76q-70.93,20-142.37,38.08c-3.36.85-10.88-4.08-12.21-7.83C642,779.11,639.14,765.2,635.23,750.08Z"/><path class="cls-2" d="M387.62,744.27c0,15.89.68,31.19-.48,46.35-.28,3.67-6.54,9.81-10.13,9.87-43.64.69-87.28.47-130.93.44-7.25,0-11.07-3.8-11.1-11.07-.07-14.9,0-29.8,0-45.59Z"/><path class="cls-2" d="M531.1,744.23c0,16.07.68,31.4-.49,46.58-.28,3.62-6.66,9.61-10.34,9.69-34,.75-67.95.46-101.93.43-7.32,0-11-3.81-11-11.12V744.23Z"/><path class="cls-2" d="M387.56,350.72H235c0-12.81-.86-25.14.52-37.21.42-3.73,6.92-9.62,10.71-9.68q65-1.05,129.94,0c3.84.06,10.45,5.7,10.86,9.31C388.42,325.19,387.56,337.53,387.56,350.72Z"/><path class="cls-2" d="M782,649.1c3.48,13.3,6.65,25.44,10.26,39.21L630.47,731.56c-3.47-13.11-6.83-25.81-10.41-39.32Z"/><path class="cls-2" d="M531.05,264.6H407.45c0-9.59-.95-18.94.47-27.92.58-3.62,6.3-9.11,9.77-9.18q51.46-1,102.94,0c3.53.07,9.37,5.42,10,9C532,245.45,531.05,254.83,531.05,264.6Z"/><path class="cls-2" d="M555.84,444.72c-1.84-6.55-3.51-12.49-5.5-19.55L712,382c1.85,6.43,3.55,12.36,5.6,19.5Z"/><path class="cls-2" d="M408.27,285.14H530.45v27.19H408.27Z"/><path class="cls-2" d="M387.25,705.88v18H235.77v-18Z"/><path class="cls-2" d="M408.15,705.48h122.2v18.43H408.15Z"/></g></g></svg>