<svg xmlns="http://www.w3.org/2000/svg" viewBox="0 0 1000 1000"><defs><style>.cls-1{fill:#ef4075;}.cls-2{fill:#fff;}</style></defs><g id="Capa_2" data-name="Capa 2"><g id="Layer_1" data-name="Layer 1"><circle class="cls-1" cx="500" cy="500" r="500"/><path class="cls-2" d="M246.39,499c0-49-.15-98,.08-147,.1-22.68,17.2-42.59,38.36-45.63,24.91-3.59,46.83,9.51,53.4,32.46a70.38,70.38,0,0,1,2.63,19q.24,142.19.07,284.37c-.05,37.36-30.56,60.89-63.55,49.39-18.79-6.55-30.91-24.13-31-45.58C246.31,597,246.39,548,246.39,499Z"/><path class="cls-2" d="M753.57,500.08c0,49.33.16,98.66-.09,148a46.06,46.06,0,0,1-32,43.76c-19.38,6.36-39.38.48-52-15.29C661.86,667.05,659,655.89,659,644.1q-.18-144.12,0-288.25c0-20.51,8.27-37.12,27.86-45.82,17.64-7.84,34.64-5.66,49.73,6.59,12.05,9.78,17,23.05,17,38.37Q753.56,427.53,753.57,500.08Z"/><path class="cls-2" d="M364.91,546.35V453.51H634.75v92.84Z"/><path class="cls-2" d="M180,566.33c-23.34,3.79-34.11-5.55-34.15-29.74-.05-25.17-.1-50.33,0-75.49.1-21.78,12.81-31.88,34.9-26.79.46-28,11.38-48.27,41.69-54.6V619.2C199.32,618.46,187.85,604.14,180,566.33Z"/><path class="cls-2" d="M820,434.2c20.85-5.05,34,5.14,34.16,26.16q.27,39.69,0,79.37c-.13,21-13.29,31.15-34.88,26-.38,28-11.53,48.12-41.63,54.66V381C800,380.93,812.48,396.4,820,434.2Z"/></g></g></svg>