<svg xmlns="http://www.w3.org/2000/svg" viewBox="0 0 1000 1000"><defs><style>.cls-1{fill:#ef4075;}.cls-2{fill:#fff;}</style></defs><g id="Capa_2" data-name="Capa 2"><g id="Layer_1" data-name="Layer 1"><circle class="cls-1" cx="500" cy="500" r="500"/><path class="cls-2" d="M451.07,762.63H439.48q-105.48,0-210.94,0c-18.23,0-23.82-5.55-23.83-23.6q0-119.52,0-239.06v-12.6h49.05c28.91,0,57.82-.23,86.72.11,10.16.12,17.64-3.29,24.46-11C403,433.55,441.67,391.09,479.63,348a30.78,30.78,0,0,0,7.17-18.41c.6-46.08.32-92.18.33-138.28,0-25.15,3.74-28.79,29.33-28.79,26.95,0,53.9-.07,80.86,0,15.78.06,21.86,9.15,12.39,21.34-12.46,16-12.21,29.25,0,45.24,9.46,12.39,3.6,21.1-12.63,21.24-24.18.22-48.37.06-74,.06-.28,4.85-.71,8.95-.72,13.06-.08,18.75.88,37.56-.33,56.23-.95,14.77,3.8,25.63,13.7,36.42,36.45,39.69,72.22,80,107.85,120.45,6.83,7.74,14.3,10.95,24.45,10.87,40.62-.31,81.25-.13,121.87-.12h14.85v12.82q0,118.94,0,237.89c0,19.08-5.34,24.54-24,24.55q-106.07,0-212.11,0H556.53v-21.3c0-30.08.08-60.16,0-90.23,0-14.59-5.8-20.56-20.57-20.77q-31.63-.45-63.28,0c-15.39.2-21.49,6.74-21.54,22.67C451,688.92,451.07,724.85,451.07,762.63Zm54-266.44a52.51,52.51,0,1,0-52.8-52.43A52.05,52.05,0,0,0,505,496.19Zm152.56,70.28c0-4.65.31-9.34-.06-14-.77-9.55-6.43-14.94-15.73-15.6S625.19,540.63,624,550a131.22,131.22,0,0,0-.09,31.19c1.08,9.35,8.28,13.91,17.55,13.4s15.11-5.73,16-15.3C657.89,575,657.56,570.74,657.59,566.47Zm70.29.06h0c0-4.66.3-9.34-.07-14-.75-9.54-6.37-15-15.68-15.65s-16.62,3.67-17.82,13a130.78,130.78,0,0,0-.13,31.2c1.07,9.34,8.23,13.94,17.52,13.45s15.13-5.67,16.06-15.25C728.22,575.1,727.88,570.79,727.88,566.53ZM657.66,660.4h0c0-4.66.29-9.33-.06-14-.73-9.53-6.26-15-15.59-15.74-9.87-.74-17,4.15-18.25,14a126.82,126.82,0,0,0-.17,28.95c1,9.8,7.84,15.15,17.77,14.67s15.62-6.2,16.31-16.29C657.88,668.18,657.66,664.28,657.66,660.4Zm70.11-.36h.13c0-4.65.32-9.34-.07-14-.75-8.94-5.92-14.26-14.75-15.28-9.24-1.07-17.11,2.76-18.4,12a127.54,127.54,0,0,0,0,33.41c1.13,8.77,8.64,12.67,17.33,12.11S726.55,683,727.67,674C728.24,669.41,727.77,664.7,727.77,660ZM277.1,565.6c0,4.28-.22,8.56,0,12.82.56,8.89,5.3,14.48,14.14,15.88,9.26,1.47,17.42-2.13,18.85-11.25a115.38,115.38,0,0,0,.09-34.41c-1.36-9.14-9.43-12.87-18.7-11.53-8.83,1.28-13.72,6.76-14.35,15.68C276.86,557,277.11,561.33,277.1,565.6Zm70.33,0c0,4.28-.22,8.56,0,12.82.56,8.89,5.29,14.48,14.14,15.88,9.26,1.47,17.42-2.13,18.85-11.25a115.71,115.71,0,0,0,.09-34.41c-1.36-9.14-9.43-12.87-18.7-11.53-8.83,1.28-13.72,6.76-14.36,15.68C347.19,557,347.44,561.33,347.43,565.6Zm138.63.16c0-3.89.15-7.79,0-11.67-.46-10-5.68-15.91-15.57-17.17a16.8,16.8,0,0,0-19.06,14.81,137.21,137.21,0,0,0,0,27.93,16.83,16.83,0,0,0,19,14.88c9.88-1.23,15.14-7.16,15.63-17.12C486.22,573.54,486.06,569.65,486.06,565.76Zm72.3-.41h.16c0-3.5.2-7,0-10.49-.76-10.78-7.87-18.07-17.49-18.17-10.36-.11-17.25,7.2-17.55,18.91-.18,7.39-.29,14.79.06,22.16.46,10,6,15.75,15.92,16.81,9.28,1,17.43-5.55,18.83-15.24C558.9,574.76,558.36,570,558.36,565.35ZM277.15,659.14c0,4.66-.37,9.36.08,14,.88,8.91,6.15,14.09,15,15.1s16.67-2.61,17.87-11.18a122.54,122.54,0,0,0-.17-35.52c-1.32-8.45-9.39-11.93-18.15-10.69s-13.85,6.57-14.56,15.5C276.85,650.57,277.13,654.87,277.15,659.14Zm70.22.44c0,3.89-.12,7.78,0,11.66.38,10,5.63,15.9,15.56,17.06a16.61,16.61,0,0,0,18.87-15,124.87,124.87,0,0,0,0-27.87,16.62,16.62,0,0,0-19-14.77c-9.92,1.27-15.09,7.2-15.39,17.23C347.27,651.81,347.37,655.7,347.37,659.58Z"/><path class="cls-2" d="M557.13,326.7h23.7q86.61,0,173.2,0c17.4,0,21.66,3.58,25.27,20.69,6.66,31.58,13.39,63.14,20,94.74.61,2.92.51,6,.82,10.13H745.53c-12.48,0-25.23-1.63-37.39.32-29.07,4.68-48.31-7-66.1-29.6C616.25,390.29,587.05,360.29,557.13,326.7Z"/><path class="cls-2" d="M208.29,452.23c5.68-27.57,10.92-53,16.15-78.44,2.12-10.29,4.06-20.61,6.37-30.85,2.21-9.83,8.12-16.14,18.62-16.15q98.88-.15,197.78.07c.61,0,1.21.66,3,1.71C432.5,348.39,415,368,397.4,387.62s-34.92,38.89-52.66,58.08c-2.68,2.9-6.87,6.21-10.39,6.25C293.06,452.38,251.75,452.23,208.29,452.23Z"/><path class="cls-2" d="M520.91,762.31H487.17V666.13h33.74Z"/><path class="cls-2" d="M522,444.82c-.58,10.05-8.7,16.95-18.94,16.07-9.58-.82-16.18-8.52-15.6-18.23A17.3,17.3,0,1,1,522,444.82Z"/></g></g></svg>