<svg xmlns="http://www.w3.org/2000/svg" viewBox="0 0 1000 1000"><defs><style>.cls-1{fill:#ee3f75;}.cls-2{fill:#fff;}</style></defs><g id="Capa_2" data-name="Capa 2"><g id="Layer_1" data-name="Layer 1"><circle class="cls-1" cx="500" cy="500" r="500"/><path class="cls-2" d="M499.89,826.79c-3.74-3.46-7-6.29-10.06-9.33Q355.7,683.33,221.7,549.08c-93.94-94.67-53.14-253.58,74.61-289.31,61.58-17.22,117.15-3.37,164.87,39.63,10.55,9.51,20.47,19.74,30.26,30,6.16,6.47,11.11,6.17,17.19-.14,10.88-11.29,21.62-22.85,33.55-33,50.76-43.07,108.61-55.19,171.32-33.21s100.93,67.43,113,133C836.94,453.44,821.72,504.6,781,546c-90.76,92.22-182.71,183.28-274.2,274.78C504.78,822.77,502.52,824.5,499.89,826.79ZM462.1,636.23h75.56c0-19,.68-37.09-.24-55.08-.62-12,3.91-15.21,15.25-14.69,17.92.83,35.9.22,55.42.22,0-22.31-.45-42.8.19-63.25.32-10-3.63-12.78-12.91-12.34-12.22.58-24.49.14-36.75.14-20.94,0-21,0-21-20.34,0-16,0-32,0-48.8H462.1c0,18.66-.75,36.29.25,53.81.72,12.6-4,16.11-15.94,15.54-17.9-.85-35.86-.22-53.85-.22v75.47c19.41,0,37.92.52,56.39-.21,10.52-.41,13.66,3.51,13.32,13.59C461.66,598.54,462.1,617.05,462.1,636.23Z"/></g></g></svg>