<svg width="247" height="204" viewBox="0 0 247 204" fill="none" xmlns="http://www.w3.org/2000/svg">
<g clip-path="url(#clip0_2_2)">
<path d="M126.31 0H90.16V17.44H126.31V0Z" fill="#F0F3F2"/>
<path d="M106.84 0H106.45V17.44H106.84V0Z" fill="#0C9FDA"/>
<path d="M114.06 0H113.67V17.44H114.06V0Z" fill="#0C9FDA"/>
<path d="M121.28 0H120.89V17.44H121.28V0Z" fill="#0C9FDA"/>
<path d="M102.6 0H90.16V17.44H102.6V0Z" fill="#0C9FDA"/>
<path d="M214.61 34.73H61V19.65C61 18.7085 61.374 17.8055 62.0398 17.1398C62.7055 16.474 63.6085 16.1 64.55 16.1H214.55L214.61 34.73Z" fill="#EAF7FC"/>
<path d="M123.09 16.1H122.38V34.73H123.09V16.1Z" fill="#0C9FDA"/>
<path d="M136.86 16.1H136.15V34.73H136.86V16.1Z" fill="#0C9FDA"/>
<path d="M150.64 16.1H149.93V34.73H150.64V16.1Z" fill="#0C9FDA"/>
<path d="M164.42 16.1H163.71V34.73H164.42V16.1Z" fill="#0C9FDA"/>
<path d="M178.19 16.1H177.48V34.73H178.19V16.1Z" fill="#0C9FDA"/>
<path d="M191.97 16.1H191.26V34.73H191.97V16.1Z" fill="#0C9FDA"/>
<path d="M205.75 16.1H205.04V34.73H205.75V16.1Z" fill="#0C9FDA"/>
<path d="M114.39 34.73H61.45V19.65C61.45 18.7085 61.824 17.8055 62.4898 17.1398C63.1555 16.474 64.0585 16.1 65 16.1H114.39V34.73Z" fill="#0C9FDA"/>
<path d="M141.49 40.99H38.81V204.26H141.49V40.99Z" fill="#0C9FDA"/>
<path d="M96.43 97.25H86.53V101.75H96.43V97.25Z" fill="#111B2F"/>
<path d="M58.44 73H48.36V76.96H58.44V73Z" fill="#111B2F"/>
<path d="M72.24 104.36H62.16V108.32H72.24V104.36Z" fill="#111B2F"/>
<path d="M54.66 79.67H43.68V84.35H54.66V79.67Z" fill="#111B2F"/>
<path d="M60.15 45.81H49.17V50.49H60.15V45.81Z" fill="#111B2F"/>
<path d="M78.18 112.51H67.2V117.19H78.18V112.51Z" fill="#111B2F"/>
<path d="M85.53 46.17H75.45V50.13H85.53V46.17Z" fill="#111B2F"/>
<path d="M91.48 54.32H80.5V59H91.48V54.32Z" fill="#111B2F"/>
<path d="M94.63 152.17H83.47V156.67H94.63V152.17Z" fill="#111B2F"/>
<path d="M81.48 194.33H71.76V197.93H81.48V194.33Z" fill="#111B2F"/>
<path d="M62.4 180.29H51.06V184.61H62.4V180.29Z" fill="#111B2F"/>
<path d="M60.33 186.41H48.72V190.91H60.33V186.41Z" fill="#111B2F"/>
<path d="M54.48 123.18H45.12V127.32H54.48V123.18Z" fill="#111B2F"/>
<path d="M65.1 147.31H54.48V151.09H65.1V147.31Z" fill="#111B2F"/>
<path d="M81.48 174.35H72.66V178.31H81.48V174.35Z" fill="#111B2F"/>
<path d="M234.2 40.99H97.38V204.26H234.2V40.99Z" fill="#81D4F7"/>
<path d="M111.44 114.94H101.54V119.44H111.44V114.94Z" fill="#B3E2EE"/>
<path d="M126.7 190.85H116.62V194.81H126.7V190.85Z" fill="#EAF7FC"/>
<path d="M131.38 183.47H120.4V188.15H131.38V183.47Z" fill="#B3E2EE"/>
<path d="M234.14 60.63H222.98V65.13H234.14V60.63Z" fill="#B3E2EE"/>
<path d="M172.86 97.04H163.14V100.64H172.86V97.04Z" fill="#EAF7FC"/>
<path d="M212.2 121.46H200.86V125.78H212.2V121.46Z" fill="#B3E2EE"/>
<path d="M226.14 106.58H214.53V111.08H226.14V106.58Z" fill="#EAF7FC"/>
<path d="M162.11 47.97H150.77V52.29H162.11V47.97Z" fill="#EAF7FC"/>
<path d="M192.15 47.88H180.54V52.38H192.15V47.88Z" fill="#B3E2EE"/>
<path d="M149.44 44.68H137.83V49.18H149.44V44.68Z" fill="#B3E2EE"/>
<path d="M223.04 189.77H211.7V194.09H223.04V189.77Z" fill="#EAF7FC"/>
<path d="M228.98 182.21H217.37V186.71H228.98V182.21Z" fill="#B3E2EE"/>
<path d="M202.93 69.1H193.57V73.24H202.93V69.1Z" fill="#EAF7FC"/>
<path d="M153.67 84.85H143.05V88.63H153.67V84.85Z" fill="#B3E2EE"/>
<path d="M128.04 49.43H117.42V53.21H128.04V49.43Z" fill="#EAF7FC"/>
<path d="M104.71 59.66H97.38V63.44H104.71V59.66Z" fill="#EAF7FC"/>
<path d="M108 156.3H97.38V160.08H108V156.3Z" fill="#B3E2EE"/>
<path d="M101.9 150.71H97.38V154.49H101.9V150.71Z" fill="#EAF7FC"/>
<path d="M145.91 120.64H137.09V124.6H145.91V120.64Z" fill="#EAF7FC"/>
<path d="M115.31 91.86H106.49V95.82H115.31V91.86Z" fill="#EAF7FC"/>
<path d="M205.81 86.75H195.91V91.07H205.81V86.75Z" fill="#B3E2EE"/>
<path d="M121.82 55.71H104.27V79.17H121.82V55.71Z" fill="#FEF0EC"/>
<path d="M120.9 56.6H105.19V78.28H120.9V56.6Z" fill="url(#paint0_linear_2_2)"/>
<path d="M121.82 66.73H104.27V68.16H121.82V66.73Z" fill="#FEF0EC"/>
<path d="M113.86 55.99H112.23V78.91H113.86V55.99Z" fill="#FEF0EC"/>
<path d="M121.82 54.24H104.27V55.99H121.82V54.24Z" fill="#FEF0EC"/>
<path d="M121.82 79.07H104.27V80.82H121.82V79.07Z" fill="#FEF0EC"/>
<path d="M148.19 55.71H130.64V79.17H148.19V55.71Z" fill="#FEF0EC"/>
<path d="M147.27 56.6H131.56V78.28H147.27V56.6Z" fill="url(#paint1_linear_2_2)"/>
<path d="M148.19 66.73H130.64V68.16H148.19V66.73Z" fill="#FEF0EC"/>
<path d="M140.23 55.99H138.6V78.91H140.23V55.99Z" fill="#FEF0EC"/>
<path d="M148.19 54.24H130.64V55.99H148.19V54.24Z" fill="#FEF0EC"/>
<path d="M148.19 79.07H130.64V80.82H148.19V79.07Z" fill="#FEF0EC"/>
<path d="M174.56 55.71H157.01V79.17H174.56V55.71Z" fill="#FEF0EC"/>
<path d="M173.64 56.6H157.93V78.28H173.64V56.6Z" fill="url(#paint2_linear_2_2)"/>
<path d="M174.56 66.73H157.01V68.16H174.56V66.73Z" fill="#FEF0EC"/>
<path d="M166.6 55.99H164.97V78.91H166.6V55.99Z" fill="#FEF0EC"/>
<path d="M174.56 54.24H157.01V55.99H174.56V54.24Z" fill="#FEF0EC"/>
<path d="M174.56 79.07H157.01V80.82H174.56V79.07Z" fill="#FEF0EC"/>
<path d="M200.93 55.71H183.38V79.17H200.93V55.71Z" fill="#FEF0EC"/>
<path d="M200.01 56.6H184.3V78.28H200.01V56.6Z" fill="url(#paint3_linear_2_2)"/>
<path d="M200.93 66.73H183.38V68.16H200.93V66.73Z" fill="#FEF0EC"/>
<path d="M192.97 55.99H191.34V78.91H192.97V55.99Z" fill="#FEF0EC"/>
<path d="M200.93 54.24H183.38V55.99H200.93V54.24Z" fill="#FEF0EC"/>
<path d="M200.93 79.07H183.38V80.82H200.93V79.07Z" fill="#FEF0EC"/>
<path d="M227.3 55.71H209.75V79.17H227.3V55.71Z" fill="#FEF0EC"/>
<path d="M226.38 56.6H210.67V78.28H226.38V56.6Z" fill="url(#paint4_linear_2_2)"/>
<path d="M227.3 66.73H209.75V68.16H227.3V66.73Z" fill="#FEF0EC"/>
<path d="M219.34 55.99H217.71V78.91H219.34V55.99Z" fill="#FEF0EC"/>
<path d="M227.3 54.24H209.75V55.99H227.3V54.24Z" fill="#FEF0EC"/>
<path d="M227.3 79.07H209.75V80.82H227.3V79.07Z" fill="#FEF0EC"/>
<path d="M121.82 90.99H104.27V114.45H121.82V90.99Z" fill="#FEF0EC"/>
<path d="M120.9 91.88H105.19V113.56H120.9V91.88Z" fill="url(#paint5_linear_2_2)"/>
<path d="M121.82 102.01H104.27V103.44H121.82V102.01Z" fill="#FEF0EC"/>
<path d="M113.86 91.27H112.23V114.19H113.86V91.27Z" fill="#FEF0EC"/>
<path d="M121.82 89.52H104.27V91.27H121.82V89.52Z" fill="#FEF0EC"/>
<path d="M121.82 114.35H104.27V116.1H121.82V114.35Z" fill="#FEF0EC"/>
<path d="M148.19 90.99H130.64V114.45H148.19V90.99Z" fill="#FEF0EC"/>
<path d="M147.27 91.88H131.56V113.56H147.27V91.88Z" fill="url(#paint6_linear_2_2)"/>
<path d="M148.19 102.01H130.64V103.44H148.19V102.01Z" fill="#FEF0EC"/>
<path d="M140.23 91.27H138.6V114.19H140.23V91.27Z" fill="#FEF0EC"/>
<path d="M148.19 89.52H130.64V91.27H148.19V89.52Z" fill="#FEF0EC"/>
<path d="M148.19 114.35H130.64V116.1H148.19V114.35Z" fill="#FEF0EC"/>
<path d="M174.56 90.99H157.01V114.45H174.56V90.99Z" fill="#FEF0EC"/>
<path d="M173.64 91.88H157.93V113.56H173.64V91.88Z" fill="url(#paint7_linear_2_2)"/>
<path d="M174.56 102.01H157.01V103.44H174.56V102.01Z" fill="#FEF0EC"/>
<path d="M166.6 91.27H164.97V114.19H166.6V91.27Z" fill="#FEF0EC"/>
<path d="M174.56 89.52H157.01V91.27H174.56V89.52Z" fill="#FEF0EC"/>
<path d="M174.56 114.35H157.01V116.1H174.56V114.35Z" fill="#FEF0EC"/>
<path d="M200.93 90.99H183.38V114.45H200.93V90.99Z" fill="#FEF0EC"/>
<path d="M200.01 91.88H184.3V113.56H200.01V91.88Z" fill="url(#paint8_linear_2_2)"/>
<path d="M200.93 102.01H183.38V103.44H200.93V102.01Z" fill="#FEF0EC"/>
<path d="M192.97 91.27H191.34V114.19H192.97V91.27Z" fill="#FEF0EC"/>
<path d="M200.93 89.52H183.38V91.27H200.93V89.52Z" fill="#FEF0EC"/>
<path d="M200.93 114.35H183.38V116.1H200.93V114.35Z" fill="#FEF0EC"/>
<path d="M227.3 90.99H209.75V114.45H227.3V90.99Z" fill="#FEF0EC"/>
<path d="M226.38 91.88H210.67V113.56H226.38V91.88Z" fill="url(#paint9_linear_2_2)"/>
<path d="M227.3 102.01H209.75V103.44H227.3V102.01Z" fill="#FEF0EC"/>
<path d="M219.34 91.27H217.71V114.19H219.34V91.27Z" fill="#FEF0EC"/>
<path d="M227.3 89.52H209.75V91.27H227.3V89.52Z" fill="#FEF0EC"/>
<path d="M227.3 114.35H209.75V116.1H227.3V114.35Z" fill="#FEF0EC"/>
<path d="M237.31 41H38.55C38.083 41 37.6205 40.9078 37.1892 40.7288C36.7578 40.5498 36.366 40.2874 36.0362 39.9567C35.7064 39.626 35.4452 39.2335 35.2674 38.8016C35.0895 38.3697 34.9987 37.907 35 37.44V32C35 31.0585 35.374 30.1555 36.0398 29.4898C36.7055 28.824 37.6085 28.45 38.55 28.45H237.31V41Z" fill="#00A18F"/>
<path d="M92.91 41H38.55C38.083 41 37.6205 40.9078 37.1892 40.7288C36.7578 40.5498 36.366 40.2874 36.0362 39.9567C35.7064 39.626 35.4452 39.2335 35.2674 38.8016C35.0895 38.3697 34.9987 37.907 35 37.44V32C35 31.0585 35.374 30.1555 36.0398 29.4898C36.7055 28.824 37.6085 28.45 38.55 28.45H92.91V41Z" fill="#1E5441"/>
<path d="M223.25 124.75H108.55V204.26H223.25V124.75Z" fill="#2B1E2B"/>
<path d="M218.53 167.7H200.98V191.16H218.53V167.7Z" fill="#00A18F"/>
<path d="M217.61 168.59H201.9V190.27H217.61V168.59Z" fill="url(#paint10_linear_2_2)"/>
<path d="M218.53 178.72H200.98V180.15H218.53V178.72Z" fill="#00A18F"/>
<path d="M210.57 167.97H208.94V190.89H210.57V167.97Z" fill="#00A18F"/>
<path d="M218.53 166.22H200.98V167.97H218.53V166.22Z" fill="#00A18F"/>
<path d="M218.53 191.06H200.98V192.81H218.53V191.06Z" fill="#00A18F"/>
<path d="M200.98 167.7H183.43V191.16H200.98V167.7Z" fill="#00A18F"/>
<path d="M200.06 168.59H184.35V190.27H200.06V168.59Z" fill="url(#paint11_linear_2_2)"/>
<path d="M200.98 178.72H183.43V180.15H200.98V178.72Z" fill="#00A18F"/>
<path d="M193.02 167.97H191.39V190.89H193.02V167.97Z" fill="#00A18F"/>
<path d="M200.98 166.22H183.43V167.97H200.98V166.22Z" fill="#00A18F"/>
<path d="M200.98 191.06H183.43V192.81H200.98V191.06Z" fill="#00A18F"/>
<path d="M148.19 167.7H130.64V191.16H148.19V167.7Z" fill="#00A18F"/>
<path d="M147.27 168.59H131.56V190.27H147.27V168.59Z" fill="url(#paint12_linear_2_2)"/>
<path d="M148.19 178.72H130.64V180.15H148.19V178.72Z" fill="#00A18F"/>
<path d="M140.23 167.97H138.6V190.89H140.23V167.97Z" fill="#00A18F"/>
<path d="M148.19 166.22H130.64V167.97H148.19V166.22Z" fill="#00A18F"/>
<path d="M148.19 191.06H130.64V192.81H148.19V191.06Z" fill="#00A18F"/>
<path d="M130.64 167.7H113.09V191.16H130.64V167.7Z" fill="#00A18F"/>
<path d="M129.72 168.59H114.01V190.27H129.72V168.59Z" fill="url(#paint13_linear_2_2)"/>
<path d="M130.64 178.72H113.09V180.15H130.64V178.72Z" fill="#00A18F"/>
<path d="M122.68 167.97H121.05V190.89H122.68V167.97Z" fill="#00A18F"/>
<path d="M130.64 166.22H113.09V167.97H130.64V166.22Z" fill="#00A18F"/>
<path d="M130.64 191.06H113.09V192.81H130.64V191.06Z" fill="#00A18F"/>
<path d="M178.08 166.22H154.52V204.26H178.08V166.22Z" fill="#00A18F"/>
<path d="M175.68 170.08H156.91V200.39H175.68V170.08Z" fill="#2B1E2B"/>
<path d="M173.15 193.46H159.44V198.34H173.15V193.46Z" fill="#444348"/>
<path d="M173.15 172.45H159.44V191.63H173.15V172.45Z" fill="url(#paint14_linear_2_2)"/>
<path d="M175.15 186.72C175.15 186.911 175.074 187.094 174.939 187.229C174.804 187.364 174.621 187.44 174.43 187.44C174.238 187.44 174.054 187.364 173.917 187.23C173.781 187.095 173.703 186.912 173.7 186.72C173.7 186.526 173.777 186.341 173.914 186.204C174.051 186.067 174.236 185.99 174.43 185.99C174.622 185.993 174.805 186.071 174.94 186.207C175.074 186.344 175.15 186.528 175.15 186.72Z" fill="#938890"/>
<path d="M171.79 176.12H160.81V179.43H171.79V176.12Z" fill="#2B1E2B"/>
<path d="M164.37 177.79C164.382 177.942 164.348 178.095 164.272 178.227C164.196 178.36 164.082 178.467 163.945 178.533C163.807 178.6 163.653 178.624 163.502 178.602C163.351 178.58 163.21 178.513 163.097 178.409C162.985 178.306 162.907 178.171 162.872 178.022C162.838 177.873 162.849 177.717 162.904 177.575C162.959 177.432 163.056 177.31 163.182 177.223C163.308 177.137 163.457 177.09 163.61 177.09C163.708 177.075 163.808 177.082 163.903 177.111C163.999 177.139 164.086 177.189 164.159 177.257C164.232 177.324 164.289 177.407 164.325 177.499C164.362 177.592 164.377 177.691 164.37 177.79ZM163.37 177.72V177.86C163.37 178.04 163.44 178.15 163.62 178.15C163.8 178.15 163.87 178.04 163.87 177.86V177.72C163.87 177.54 163.8 177.43 163.62 177.43C163.44 177.43 163.36 177.54 163.36 177.72H163.37Z" fill="white"/>
<path d="M166.07 177.79C166.07 178.26 165.86 178.49 165.5 178.49C165.43 178.495 165.359 178.483 165.293 178.457C165.228 178.432 165.168 178.391 165.12 178.34V179H164.62V177.15H165V177.34C165.047 177.269 165.111 177.212 165.186 177.173C165.261 177.135 165.345 177.116 165.43 177.12C165.86 177.09 166.07 177.32 166.07 177.79ZM165.12 177.79V177.87C165.12 178.03 165.19 178.16 165.34 178.16C165.49 178.16 165.56 178.06 165.56 177.9V177.76C165.56 177.6 165.5 177.5 165.34 177.5C165.18 177.5 165.12 177.59 165.12 177.75V177.79Z" fill="white"/>
<path d="M167.77 177.79V177.88H166.77C166.77 178.06 166.85 178.17 167.04 178.17C167.23 178.17 167.29 178.08 167.29 177.97H167.78C167.78 178.3 167.54 178.49 167.05 178.49C166.56 178.49 166.26 178.28 166.26 177.79C166.253 177.691 166.268 177.592 166.305 177.499C166.341 177.407 166.398 177.324 166.471 177.257C166.544 177.189 166.631 177.139 166.727 177.111C166.822 177.082 166.922 177.075 167.02 177.09C167.5 177.09 167.77 177.31 167.77 177.79ZM166.77 177.64H167.27C167.271 177.609 167.266 177.579 167.255 177.55C167.244 177.522 167.227 177.496 167.206 177.474C167.184 177.453 167.158 177.436 167.13 177.425C167.101 177.414 167.071 177.409 167.04 177.41C167.006 177.404 166.971 177.406 166.938 177.415C166.905 177.424 166.874 177.439 166.848 177.461C166.821 177.483 166.799 177.51 166.784 177.541C166.769 177.572 166.761 177.606 166.76 177.64H166.77Z" fill="white"/>
<path d="M169.41 177.59V178.46H168.91V177.65C168.913 177.625 168.91 177.6 168.903 177.576C168.895 177.553 168.882 177.531 168.865 177.513C168.847 177.495 168.826 177.48 168.803 177.471C168.78 177.462 168.755 177.458 168.73 177.46C168.702 177.46 168.675 177.465 168.65 177.476C168.624 177.487 168.601 177.502 168.582 177.522C168.562 177.541 168.547 177.564 168.536 177.59C168.525 177.615 168.52 177.642 168.52 177.67V178.46H168V177.12H168.41V177.32C168.468 177.248 168.541 177.191 168.624 177.151C168.707 177.111 168.798 177.09 168.89 177.09C169.26 177.09 169.41 177.27 169.41 177.59Z" fill="white"/>
<path d="M166.3 173.37L161.77 176.64H162.65L166.3 173.6L169.94 176.64H170.82L166.3 173.37Z" fill="#2B1E2B"/>
<path d="M166.8 173.6C166.8 173.733 166.747 173.86 166.654 173.954C166.56 174.047 166.433 174.1 166.3 174.1C166.234 174.101 166.167 174.089 166.106 174.065C166.044 174.04 165.987 174.004 165.94 173.957C165.892 173.911 165.855 173.855 165.829 173.794C165.803 173.732 165.79 173.667 165.79 173.6C165.79 173.465 165.844 173.335 165.939 173.239C166.035 173.144 166.165 173.09 166.3 173.09C166.367 173.09 166.432 173.103 166.494 173.129C166.555 173.155 166.611 173.192 166.657 173.24C166.704 173.287 166.74 173.344 166.765 173.406C166.789 173.467 166.801 173.534 166.8 173.6Z" fill="#2B1E2B"/>
<path d="M147.47 163.41H115.3V127.81L147.47 144.57V163.41Z" fill="#1E5441"/>
<path d="M247.15 144.57H147.47L115.3 127.81H214.98L247.15 144.57Z" fill="#007D58"/>
<path d="M247.15 144.57H146.96V163.41H247.15V144.57Z" fill="#00A18F"/>
<path d="M160.34 153.32H157.91C157.935 153.126 157.918 152.928 157.858 152.741C157.798 152.555 157.697 152.383 157.564 152.24C157.43 152.097 157.266 151.985 157.084 151.912C156.902 151.839 156.706 151.808 156.51 151.82C155.43 151.82 155.02 152.57 155.02 153.66V154.39C155.02 155.47 155.45 156.22 156.49 156.22C156.689 156.247 156.891 156.228 157.082 156.165C157.273 156.103 157.447 155.998 157.591 155.858C157.735 155.719 157.846 155.548 157.915 155.36C157.984 155.171 158.01 154.97 157.99 154.77H160.34C160.34 156.95 158.94 158.13 156.53 158.13C153.82 158.13 152.41 156.73 152.41 154.02C152.41 151.31 153.82 149.92 156.53 149.92C158.83 149.92 160.34 151.11 160.34 153.32Z" fill="white"/>
<path d="M169.94 154C169.94 156.71 168.37 158.11 165.66 158.11C162.95 158.11 161.39 156.71 161.39 154C161.39 151.29 162.95 149.9 165.66 149.9C168.37 149.9 169.94 151.32 169.94 154ZM163.99 153.64V154.37C163.972 154.601 164.002 154.833 164.078 155.052C164.154 155.27 164.275 155.471 164.432 155.641C164.589 155.811 164.78 155.946 164.992 156.039C165.204 156.132 165.433 156.18 165.665 156.18C165.897 156.18 166.126 156.132 166.338 156.039C166.55 155.946 166.741 155.811 166.898 155.641C167.055 155.471 167.176 155.27 167.252 155.052C167.328 154.833 167.358 154.601 167.34 154.37V153.64C167.358 153.409 167.328 153.177 167.252 152.958C167.176 152.74 167.055 152.539 166.898 152.369C166.741 152.199 166.55 152.064 166.338 151.971C166.126 151.878 165.897 151.83 165.665 151.83C165.433 151.83 165.204 151.878 164.992 151.971C164.78 152.064 164.589 152.199 164.432 152.369C164.275 152.539 164.154 152.74 164.078 152.958C164.002 153.177 163.972 153.409 163.99 153.64Z" fill="white"/>
<path d="M171.32 158V150.07H177.73V152H173.87V153.36H177.19V155.18H173.87V158H171.32Z" fill="white"/>
<path d="M179 158V150.07H185.4V152H181.54V153.36H184.86V155.18H181.54V158H179Z" fill="white"/>
<path d="M186.71 158V150.07H193.56V152H189.25V153.1H192.94V154.92H189.25V156.13H193.64V158H186.71Z" fill="white"/>
<path d="M195 158V150.07H201.86V152H197.55V153.1H201.24V154.92H197.55V156.13H202V158H195Z" fill="white"/>
<path d="M214 152.36V152.5H211.62C211.62 152.08 211.33 151.69 210.62 151.69C209.91 151.69 209.57 151.93 209.57 152.21C209.57 153.39 214.19 152.46 214.25 155.4C214.25 157.4 212.75 158.17 210.76 158.17C208.54 158.17 206.84 157.6 206.84 155.34H209.25C209.25 156.19 209.75 156.34 210.53 156.34C210.99 156.34 211.65 156.34 211.65 155.81C211.65 154.68 206.97 155.58 206.97 152.5C206.97 150.65 208.65 149.96 210.53 149.96C212.41 149.96 214 150.67 214 152.36Z" fill="white"/>
<path d="M223.42 158H220.87V155H218.07V158H215.53V150.07H218.07V153H220.87V150.11H223.42V158Z" fill="white"/>
<path d="M233.36 154C233.36 156.71 231.78 158.11 229.07 158.11C226.36 158.11 224.8 156.71 224.8 154C224.8 151.29 226.37 149.9 229.07 149.9C231.77 149.9 233.36 151.32 233.36 154ZM227.36 153.64V154.37C227.342 154.601 227.372 154.833 227.448 155.052C227.524 155.27 227.645 155.471 227.802 155.641C227.959 155.811 228.15 155.946 228.362 156.039C228.574 156.132 228.803 156.18 229.035 156.18C229.267 156.18 229.496 156.132 229.708 156.039C229.92 155.946 230.111 155.811 230.268 155.641C230.425 155.471 230.546 155.27 230.622 155.052C230.698 154.833 230.728 154.601 230.71 154.37V153.64C230.728 153.409 230.698 153.177 230.622 152.958C230.546 152.74 230.425 152.539 230.268 152.369C230.111 152.199 229.92 152.064 229.708 151.971C229.496 151.878 229.267 151.83 229.035 151.83C228.803 151.83 228.574 151.878 228.362 151.971C228.15 152.064 227.959 152.199 227.802 152.369C227.645 152.539 227.524 152.74 227.448 152.958C227.372 153.177 227.342 153.409 227.36 153.64Z" fill="white"/>
<path d="M239.19 150.06C239.53 150.053 239.868 150.116 240.183 150.245C240.498 150.374 240.783 150.566 241.02 150.81C241.258 151.054 241.442 151.344 241.563 151.662C241.683 151.98 241.737 152.32 241.72 152.66V152.81C241.738 153.151 241.685 153.492 241.566 153.812C241.446 154.132 241.262 154.424 241.025 154.67C240.787 154.916 240.502 155.11 240.186 155.241C239.871 155.372 239.532 155.436 239.19 155.43H237.28V158H234.74V150.07L239.19 150.06ZM237.28 151.94V153.58H238.33C238.437 153.594 238.546 153.584 238.648 153.55C238.751 153.516 238.845 153.46 238.922 153.385C239 153.31 239.06 153.218 239.098 153.117C239.135 153.016 239.15 152.908 239.14 152.8V152.71C239.15 152.603 239.136 152.495 239.098 152.394C239.061 152.293 239 152.202 238.922 152.128C238.844 152.054 238.75 151.998 238.648 151.966C238.545 151.933 238.437 151.924 238.33 151.94H237.28Z" fill="white"/>
</g>
<g clip-path="url(#clip1_2_2)">
<path d="M72.7971 147.454C72.9546 146.989 73.0358 146.502 73.0376 146.011C73.0404 145.406 72.9238 144.806 72.6944 144.246C72.465 143.687 72.1273 143.178 71.7007 142.749C71.2741 142.32 70.7671 141.98 70.2086 141.748C69.6502 141.515 69.0515 141.396 68.4468 141.396C68.0784 141.395 67.7114 141.439 67.3537 141.527C67.1883 139.886 66.5136 138.338 65.4243 137.101C64.3349 135.863 62.8855 134.998 61.2796 134.626C59.6737 134.255 57.9918 134.396 56.47 135.029C54.9482 135.663 53.6628 136.757 52.7943 138.159C51.6757 137.616 50.452 137.325 49.2091 137.306C46.9127 137.34 44.7221 138.277 43.1105 139.914C41.4989 141.551 40.5956 143.757 40.5959 146.055V146.208C39.2887 146.544 38.1486 147.345 37.3888 148.461C36.6291 149.577 36.3016 150.932 36.4677 152.272C36.6338 153.612 37.2821 154.846 38.2913 155.742C39.3005 156.639 40.6016 157.137 41.9512 157.144C42.3485 157.146 42.7446 157.102 43.1317 157.013C43.8972 158.282 44.9779 159.332 46.2688 160.06C47.5597 160.788 49.0169 161.17 50.4989 161.168H51.1984C52.0125 162.166 53.041 162.968 54.2074 163.514C55.3738 164.06 56.6481 164.336 57.9357 164.321C59.2232 164.306 60.491 164.001 61.6446 163.429C62.7982 162.857 63.8081 162.032 64.5992 161.015C65.484 161.614 66.4811 162.027 67.5301 162.229C68.5791 162.431 69.6583 162.418 70.7021 162.191C71.7459 161.963 72.7326 161.526 73.6025 160.906C74.4725 160.285 75.2075 159.495 75.763 158.582C76.3185 157.669 76.6829 156.652 76.8342 155.594C76.9856 154.536 76.9206 153.458 76.6433 152.426C76.366 151.394 75.8821 150.429 75.221 149.589C74.5598 148.75 73.7352 148.053 72.7971 147.542V147.454Z" fill="#A3CF62"/>
<path d="M72.1413 158.128C70.8012 158.142 69.4889 157.745 68.3812 156.991C67.699 157.864 66.8265 158.571 65.8301 159.056C64.8338 159.541 63.7398 159.792 62.6317 159.79C61.5518 159.791 60.4848 159.555 59.5064 159.098C58.5279 158.64 57.6619 157.973 56.9697 157.144H56.3795C55.1234 157.141 53.889 156.815 52.7944 156.199C51.6998 155.582 50.7815 154.695 50.1272 153.622C49.7965 153.692 49.4597 153.729 49.1216 153.732C47.9721 153.713 46.8687 153.276 46.0184 152.502C45.1682 151.728 44.6295 150.669 44.5034 149.526C44.3773 148.383 44.6725 147.233 45.3336 146.292C45.9947 145.35 46.9762 144.683 48.0942 144.414C48.0836 144.364 48.0836 144.312 48.0942 144.261C48.0803 142.916 48.4359 141.593 49.122 140.436C49.8082 139.278 50.7986 138.332 51.9854 137.7C51.0872 137.42 50.1497 137.287 49.2091 137.306C46.9127 137.34 44.7221 138.277 43.1105 139.914C41.4989 141.551 40.5956 143.757 40.5959 146.055V146.208C39.2887 146.544 38.1486 147.345 37.3888 148.461C36.6291 149.577 36.3016 150.932 36.4677 152.272C36.6338 153.612 37.2821 154.846 38.2913 155.742C39.3005 156.639 40.6016 157.137 41.9512 157.144C42.3485 157.146 42.7446 157.102 43.1317 157.013C43.8972 158.282 44.9779 159.332 46.2688 160.06C47.5597 160.788 49.0169 161.17 50.4989 161.168H51.1984C52.0125 162.166 53.041 162.968 54.2074 163.514C55.3738 164.06 56.6481 164.336 57.9357 164.321C59.2232 164.306 60.4909 164.001 61.6446 163.429C62.7982 162.857 63.8081 162.032 64.5992 161.015C65.649 161.734 66.8569 162.188 68.1199 162.339C69.383 162.49 70.6638 162.333 71.8533 161.882C73.0427 161.431 74.1056 160.699 74.9513 159.748C75.7969 158.798 76.4004 157.656 76.7102 156.422C75.463 157.557 73.8268 158.168 72.1413 158.128Z" fill="#33B44A"/>
<path d="M60.9484 122.105C60.9361 120.575 60.3353 119.109 59.2708 118.011C58.2063 116.913 56.76 116.267 55.2322 116.208C53.7044 116.149 52.2126 116.681 51.0665 117.693C49.9205 118.706 49.2083 120.121 49.0779 121.645C48.5823 120.983 47.9256 120.458 47.1702 120.12C46.4148 119.783 45.5857 119.645 44.7617 119.718C43.9377 119.791 43.1462 120.074 42.4622 120.54C41.7783 121.005 41.2246 121.638 40.8538 122.378C40.483 123.118 40.3074 123.94 40.3437 124.767C40.3799 125.594 40.6268 126.398 41.0609 127.102C41.495 127.807 42.102 128.389 42.824 128.793C43.5461 129.197 44.3594 129.409 45.1867 129.41H45.7332C45.7811 130.787 46.2608 132.113 47.1043 133.202C47.9477 134.29 49.1122 135.086 50.4326 135.475C51.7531 135.865 53.1626 135.829 54.4614 135.372C55.7602 134.916 56.8825 134.062 57.6693 132.931C58.6364 133.589 59.7791 133.94 60.9484 133.938C62.5255 133.938 64.0379 133.311 65.153 132.195C66.2681 131.079 66.8946 129.566 66.8946 127.988C66.8946 126.41 66.2681 124.897 65.153 123.782C64.0379 122.666 62.5255 122.039 60.9484 122.039V122.105Z" fill="#A3CF62"/>
<path d="M62.4787 131.4C61.4611 131.404 60.4651 131.107 59.6149 130.547C59.103 131.34 58.4005 131.992 57.5718 132.443C56.743 132.894 55.8144 133.129 54.8711 133.128C53.3654 133.123 51.923 132.522 50.8583 131.456C49.7937 130.391 49.193 128.948 49.1872 127.442H48.6844C47.7943 127.443 46.9263 127.164 46.2033 126.645C45.4803 126.125 44.939 125.391 44.656 124.547C44.3731 123.703 44.3629 122.791 44.6268 121.94C44.8908 121.09 45.4155 120.344 46.1267 119.808C45.8143 119.774 45.4991 119.774 45.1867 119.808C43.8995 119.808 42.6651 120.32 41.755 121.23C40.8448 122.141 40.3335 123.376 40.3335 124.664C40.3335 125.952 40.8448 127.187 41.755 128.097C42.6651 129.008 43.8995 129.519 45.1867 129.519H45.7332C45.8023 130.887 46.2973 132.198 47.1488 133.27C48.0002 134.342 49.1655 135.121 50.4814 135.497C51.7973 135.873 53.1978 135.828 54.4867 135.368C55.7757 134.908 56.8885 134.056 57.6693 132.931C58.6364 133.589 59.7791 133.94 60.9484 133.938C62.3376 133.935 63.6819 133.445 64.7481 132.554C65.8143 131.663 66.5351 130.427 66.7853 129.06C66.3149 129.774 65.6758 130.361 64.9247 130.769C64.1735 131.177 63.3335 131.394 62.4787 131.4Z" fill="#33B44A"/>
<path d="M52.4664 95.1802C52.1315 95.1584 51.7956 95.1584 51.4608 95.1802C51.0717 92.9267 49.9172 90.8767 48.1923 89.3764C46.4673 87.876 44.2777 87.0174 41.9932 86.9454C39.7086 86.8734 37.4693 87.5925 35.6534 88.9812C33.8375 90.37 32.5564 92.3433 32.0263 94.5677C31.13 94.0237 30.1016 93.7362 29.0533 93.7366C28.3023 93.7337 27.5583 93.8802 26.8645 94.1677C26.1707 94.4552 25.541 94.8778 25.0121 95.4111C24.4831 95.9444 24.0655 96.5777 23.7835 97.274C23.5014 97.9703 23.3607 98.7158 23.3694 99.4671C23.3586 99.6273 23.3586 99.7881 23.3694 99.9483C21.953 100.409 20.6585 101.183 19.5818 102.213C18.5051 103.242 17.6738 104.501 17.1496 105.896C16.6253 107.291 16.4215 108.786 16.5534 110.27C16.6852 111.754 17.1492 113.19 17.911 114.47C18.6729 115.751 19.713 116.843 20.9542 117.667C22.1955 118.491 23.6062 119.024 25.0815 119.228C26.5569 119.432 28.0593 119.301 29.4772 118.845C30.8951 118.388 32.1922 117.619 33.2724 116.593C34.2619 118.107 35.6462 119.323 37.2758 120.107C38.9053 120.892 40.7181 121.216 42.5185 121.045C44.3188 120.874 46.0382 120.214 47.4909 119.136C48.9436 118.059 50.0744 116.604 50.7612 114.931C51.2806 115.026 51.8072 115.077 52.3352 115.084C53.6414 115.084 54.9349 114.826 56.1417 114.326C57.3485 113.826 58.445 113.093 59.3686 112.169C60.2923 111.245 61.0249 110.148 61.5248 108.94C62.0247 107.733 62.282 106.439 62.282 105.132C62.282 103.825 62.0247 102.531 61.5248 101.324C61.0249 100.116 60.2923 99.0191 59.3686 98.095C58.445 97.1709 57.3485 96.4378 56.1417 95.9377C54.9349 95.4376 53.6414 95.1802 52.3352 95.1802H52.4664Z" fill="#A3CF62"/>
<path d="M61.8229 101.829C61.8229 102.135 61.8229 102.442 61.8229 102.77C61.7999 104.969 60.9137 107.071 59.3554 108.621C57.7971 110.172 55.6918 111.048 53.4938 111.059C53.0427 111.093 52.5896 111.093 52.1385 111.059C51.5636 112.482 50.6091 113.72 49.3791 114.637C48.1492 115.554 46.691 116.116 45.1638 116.26C43.6366 116.404 42.0991 116.126 40.7191 115.456C39.3391 114.786 38.1697 113.749 37.3386 112.459C36.4289 113.34 35.332 114.004 34.1297 114.4C32.9275 114.797 31.6511 114.917 30.3962 114.75C29.1412 114.584 27.9402 114.135 26.8829 113.438C25.8257 112.742 24.9396 111.815 24.291 110.727C23.6424 109.639 23.2481 108.419 23.1376 107.157C23.0271 105.896 23.2033 104.625 23.6529 103.441C24.1026 102.257 24.814 101.19 25.7341 100.32C26.6541 99.4502 27.7589 98.7996 28.9658 98.4172C28.9658 98.2641 28.9658 98.1329 28.9658 98.0017C28.9709 97.2509 29.1514 96.5118 29.4931 95.8434C29.8347 95.175 30.3279 94.5958 30.9333 94.1522C30.3284 93.9423 29.6935 93.8315 29.0533 93.8241C28.3097 93.8212 27.5729 93.9649 26.8848 94.2469C26.1968 94.529 25.571 94.9438 25.0432 95.4678C24.5154 95.9918 24.0959 96.6147 23.8087 97.3009C23.5216 97.9871 23.3723 98.7232 23.3694 99.4671C23.3586 99.6273 23.3586 99.7881 23.3694 99.9483C21.953 100.409 20.6585 101.183 19.5818 102.213C18.5051 103.242 17.6738 104.501 17.1496 105.896C16.6253 107.291 16.4215 108.786 16.5534 110.27C16.6852 111.754 17.1492 113.19 17.911 114.47C18.6729 115.751 19.713 116.843 20.9542 117.667C22.1955 118.491 23.6061 119.024 25.0815 119.228C26.5569 119.432 28.0593 119.301 29.4772 118.845C30.8951 118.388 32.1922 117.619 33.2724 116.593C34.2619 118.107 35.6462 119.323 37.2758 120.107C38.9053 120.892 40.7181 121.216 42.5185 121.045C44.3188 120.874 46.0382 120.214 47.4909 119.136C48.9436 118.059 50.0744 116.604 50.7612 114.931C51.2806 115.026 51.8072 115.077 52.3352 115.084C54.9732 115.084 57.5032 114.035 59.3686 112.169C61.234 110.303 62.2819 107.771 62.2819 105.132C62.3204 104.013 62.1651 102.895 61.8229 101.829Z" fill="#33B44A"/>
<path d="M40.0275 170.114L41.8857 171.47L56.3358 150.67C56.3817 150.608 56.4148 150.539 56.4332 150.464C56.4515 150.39 56.4546 150.313 56.4424 150.237C56.4301 150.162 56.4027 150.089 56.3619 150.025C56.321 149.96 56.2675 149.904 56.2046 149.86L56.0516 149.751C55.9252 149.66 55.7689 149.621 55.6146 149.641C55.4603 149.662 55.3195 149.74 55.2209 149.86L40.0275 170.114Z" fill="#866134"/>
<path d="M40.0275 138.946L41.6233 140.105L53.9092 122.411C53.9551 122.35 53.9883 122.28 54.0066 122.206C54.0249 122.131 54.028 122.054 54.0158 121.978C54.0035 121.903 53.9762 121.83 53.9353 121.766C53.8945 121.701 53.841 121.645 53.778 121.602C53.7168 121.556 53.647 121.523 53.5727 121.504C53.4984 121.486 53.4212 121.483 53.3457 121.495C53.2701 121.507 53.1979 121.535 53.1332 121.576C53.0685 121.616 53.0127 121.67 52.9692 121.733L40.0275 138.946Z" fill="#866134"/>
<path d="M41.6452 120.136L40.4647 121.011L31.1082 107.538L31.8077 107.035L41.6452 120.136Z" fill="#866134"/>
<path d="M43.8313 205.109H37.9507L40.2898 101.851C40.2898 101.695 40.352 101.544 40.4627 101.434C40.5734 101.323 40.7235 101.261 40.8801 101.261C41.0366 101.261 41.1867 101.323 41.2974 101.434C41.4081 101.544 41.4703 101.695 41.4703 101.851L43.8313 205.109Z" fill="#866134"/>
<path d="M48.8156 138.159C48.8156 135.752 47.8598 133.443 46.1584 131.74C44.457 130.038 42.1494 129.082 39.7433 129.082C39.2521 129.081 38.7618 129.125 38.2786 129.213C38.3109 128.842 38.3109 128.469 38.2786 128.098C38.2734 126.666 37.8565 125.266 37.0776 124.065C36.2987 122.864 35.1908 121.913 33.8861 121.325C32.5815 120.736 31.1352 120.536 29.72 120.749C28.3048 120.961 26.9805 121.576 25.9053 122.52C24.7554 120.956 23.1732 119.762 21.3536 119.086C19.534 118.411 17.5566 118.282 15.665 118.717C13.7734 119.152 12.0502 120.131 10.7079 121.533C9.36551 122.936 8.46261 124.701 8.11043 126.61C7.08611 126.677 6.09601 127.006 5.23444 127.564C4.37287 128.122 3.66854 128.892 3.18856 129.8C2.70857 130.708 2.46892 131.723 2.49243 132.75C2.51594 133.777 2.80183 134.781 3.32287 135.665C1.48204 137.04 0.262464 139.09 -0.0675644 141.365C-0.397593 143.639 0.188961 145.952 1.56306 147.794C2.93716 149.635 4.98625 150.855 7.25955 151.186C9.53285 151.516 11.8441 150.929 13.685 149.554C14.5581 151.229 15.8497 152.648 17.4341 153.675C19.0185 154.702 20.8416 155.3 22.7258 155.413C24.6101 155.525 26.4914 155.147 28.1864 154.316C29.8814 153.485 31.3323 152.229 32.398 150.67C33.3837 151.181 34.4794 151.444 35.5897 151.435C37.0076 151.438 38.3932 151.011 39.564 150.211C40.7347 149.411 41.6356 148.274 42.148 146.951C44.0707 146.423 45.7657 145.275 46.9709 143.686C48.1761 142.096 48.8244 140.154 48.8156 138.159Z" fill="#A3CF62"/>
<path d="M48.6844 136.65C48.4145 138.165 47.724 139.573 46.6918 140.714C45.6596 141.855 44.3275 142.683 42.8475 143.102C42.5328 143.928 42.0477 144.679 41.4238 145.306C40.7999 145.932 40.0511 146.42 39.2263 146.738C38.4014 147.055 37.5189 147.196 36.6363 147.15C35.7536 147.104 34.8905 146.872 34.1031 146.47C33.1326 147.869 31.8187 148.995 30.2876 149.74C28.7565 150.484 27.0598 150.822 25.3605 150.721C23.6612 150.62 22.0165 150.084 20.5843 149.163C19.1522 148.242 17.9808 146.969 17.1827 145.464C15.5216 146.708 13.4345 147.242 11.3806 146.946C9.32661 146.651 7.47403 145.551 6.23038 143.889C4.98673 142.227 4.45389 140.139 4.74907 138.084C5.04425 136.029 6.14327 134.176 7.80437 132.931C7.32188 132.093 7.06573 131.143 7.0611 130.176C7.05822 128.796 7.58116 127.466 8.52343 126.459C9.46569 125.451 10.7564 124.84 12.1328 124.751C12.385 123.456 12.9167 122.23 13.6907 121.161C14.4647 120.092 15.4624 119.205 16.6143 118.561C14.5469 118.849 12.6227 119.782 11.1157 121.227C9.60855 122.672 8.59521 124.556 8.21973 126.61C7.19542 126.677 6.20531 127.006 5.34374 127.564C4.48217 128.122 3.77784 128.892 3.29786 129.8C2.81787 130.708 2.57822 131.723 2.60173 132.75C2.62524 133.777 2.91114 134.781 3.43217 135.665C1.6881 137.061 0.551981 139.077 0.262281 141.293C-0.0274187 143.508 0.551827 145.749 1.87844 147.546C3.20505 149.343 5.17587 150.556 7.37724 150.931C9.57862 151.305 11.8394 150.812 13.685 149.554C14.5581 151.229 15.8497 152.648 17.4341 153.675C19.0185 154.702 20.8416 155.3 22.7258 155.413C24.6101 155.525 26.4914 155.147 28.1864 154.316C29.8814 153.485 31.3323 152.229 32.398 150.67C33.3837 151.181 34.4794 151.444 35.5897 151.435C37.0076 151.438 38.3932 151.011 39.5639 150.211C40.7347 149.411 41.6356 148.274 42.148 146.951C44.0431 146.405 45.7084 145.255 46.8918 143.676C48.0753 142.097 48.7122 140.176 48.7063 138.203C48.7344 137.685 48.7271 137.166 48.6844 136.65Z" fill="#33B44A"/>
<path d="M40.9675 156.138L39.3279 157.341L26.5611 138.99C26.475 138.858 26.4429 138.699 26.4714 138.544C26.4999 138.389 26.5868 138.251 26.7141 138.159C26.8431 138.07 27.0011 138.035 27.1556 138.059C27.3101 138.084 27.4493 138.166 27.5448 138.29L40.9675 156.138Z" fill="#866134"/>
<path d="M54.3464 95.7488C54.7401 94.6694 55.5187 93.7735 56.5325 93.2336C57.1514 94.2076 57.3924 95.3747 57.2102 96.5144C56.8192 97.59 56.0391 98.4798 55.0241 99.0078C54.4048 98.042 54.1635 96.8816 54.3464 95.7488Z" fill="#A3CF62"/>
<path d="M21.861 106.685C22.6446 105.84 23.7097 105.311 24.8559 105.198C25.0703 106.329 24.8518 107.5 24.2438 108.478C23.4627 109.326 22.3962 109.856 21.2489 109.966C21.0472 108.834 21.2648 107.668 21.861 106.685Z" fill="#A3CF62"/>
<path d="M56.2046 126.37C56.9882 125.525 58.0533 124.996 59.1996 124.882C59.4139 126.014 59.1954 127.185 58.5874 128.163C57.8038 129.008 56.7387 129.537 55.5925 129.651C55.3908 128.519 55.6084 127.352 56.2046 126.37Z" fill="#79C143"/>
<path d="M45.1429 95.552C45.5948 96.6127 45.6492 97.8009 45.296 98.8984C44.17 98.6362 43.181 97.9661 42.5196 97.0174C42.0677 95.9567 42.0134 94.7685 42.3666 93.671C43.4925 93.9332 44.4816 94.6033 45.1429 95.552Z" fill="#79C143"/>
<path d="M63.1127 145.355C64.0579 146.01 64.7276 146.991 64.9927 148.111C63.9049 148.477 62.7194 148.422 61.6698 147.958C60.72 147.307 60.049 146.324 59.7898 145.202C60.8776 144.835 62.0631 144.89 63.1127 145.355Z" fill="#79C143"/>
<path d="M50.477 102.77C51.456 103.413 52.1642 104.394 52.4664 105.526C51.371 105.891 50.179 105.837 49.1216 105.373C48.1718 104.722 47.5008 103.739 47.2416 102.617C48.3036 102.279 49.4516 102.333 50.477 102.77Z" fill="#79C143"/>
<path d="M61.801 158.697C60.7081 159.067 59.5169 159.02 58.4563 158.566C58.8397 157.464 59.6189 156.544 60.6424 155.985C61.7317 155.601 62.9252 155.64 63.9871 156.094C63.6065 157.203 62.8273 158.131 61.801 158.697Z" fill="#33B44A"/>
<path d="M14.5813 136.672C13.5689 136.14 12.7899 135.252 12.3952 134.178C13.4292 133.674 14.6135 133.573 15.7181 133.894C16.7332 134.432 17.5123 135.329 17.9042 136.409C16.8663 136.902 15.6836 136.995 14.5813 136.672Z" fill="#33B44A"/>
<path d="M74.6553 151.37C73.6849 150.747 72.9769 149.79 72.6659 148.679C73.7427 148.267 74.9338 148.267 76.0107 148.679C76.9782 149.295 77.6861 150.244 78 151.348C76.9263 151.769 75.7344 151.777 74.6553 151.37Z" fill="#A3CF62"/>
<path d="M73.278 143.539C72.5382 144.419 71.5056 145.002 70.3705 145.18C70.0935 144.066 70.2416 142.888 70.7859 141.877C71.5178 140.988 72.5542 140.403 73.6934 140.237C73.9704 141.351 73.8223 142.529 73.278 143.539Z" fill="#A3CF62"/>
<path d="M1.81446 130.744C1.25333 129.74 1.0895 128.561 1.35538 127.442C2.51605 127.56 3.59136 128.105 4.3722 128.973C4.92135 129.981 5.08455 131.155 4.83128 132.275C3.6706 132.157 2.59529 131.611 1.81446 130.744Z" fill="#33B44A"/>
<path d="M14.5376 151.654C13.784 152.528 12.7317 153.09 11.5863 153.229C11.3463 152.103 11.5251 150.929 12.0891 149.926C12.8488 149.063 13.8994 148.511 15.0404 148.373C15.281 149.491 15.1021 150.659 14.5376 151.654Z" fill="#33B44A"/>
<path d="M34.1906 133.959C33.4009 134.801 32.3244 135.316 31.1738 135.403C30.9851 134.266 31.2183 133.099 31.8296 132.122C32.6356 131.313 33.7074 130.823 34.8464 130.744C35.0188 131.86 34.7861 133 34.1906 133.959Z" fill="#33B44A"/>
<path d="M17.9916 131.925C18.3742 130.828 19.1543 129.915 20.1777 129.366C20.8199 130.323 21.0847 131.484 20.921 132.625C20.5319 133.713 19.7528 134.617 18.7349 135.162C18.0922 134.214 17.8271 133.059 17.9916 131.925Z" fill="#33B44A"/>
</g>
<defs>
<linearGradient id="paint0_linear_2_2" x1="119.98" y1="56.75" x2="105.88" y2="78.5" gradientUnits="userSpaceOnUse">
<stop stop-color="#EE4D9B"/>
<stop offset="0.21" stop-color="#EB4C9B"/>
<stop offset="0.38" stop-color="#E0499A"/>
<stop offset="0.54" stop-color="#CF4599"/>
<stop offset="0.7" stop-color="#B63E97"/>
<stop offset="0.85" stop-color="#973694"/>
<stop offset="1" stop-color="#6F2C91"/>
</linearGradient>
<linearGradient id="paint1_linear_2_2" x1="146.35" y1="56.75" x2="132.25" y2="78.5" gradientUnits="userSpaceOnUse">
<stop stop-color="#EE4D9B"/>
<stop offset="0.21" stop-color="#EB4C9B"/>
<stop offset="0.38" stop-color="#E0499A"/>
<stop offset="0.54" stop-color="#CF4599"/>
<stop offset="0.7" stop-color="#B63E97"/>
<stop offset="0.85" stop-color="#973694"/>
<stop offset="1" stop-color="#6F2C91"/>
</linearGradient>
<linearGradient id="paint2_linear_2_2" x1="172.72" y1="56.75" x2="158.62" y2="78.5" gradientUnits="userSpaceOnUse">
<stop stop-color="#EE4D9B"/>
<stop offset="0.21" stop-color="#EB4C9B"/>
<stop offset="0.38" stop-color="#E0499A"/>
<stop offset="0.54" stop-color="#CF4599"/>
<stop offset="0.7" stop-color="#B63E97"/>
<stop offset="0.85" stop-color="#973694"/>
<stop offset="1" stop-color="#6F2C91"/>
</linearGradient>
<linearGradient id="paint3_linear_2_2" x1="199.09" y1="56.75" x2="184.99" y2="78.5" gradientUnits="userSpaceOnUse">
<stop stop-color="#EE4D9B"/>
<stop offset="0.21" stop-color="#EB4C9B"/>
<stop offset="0.38" stop-color="#E0499A"/>
<stop offset="0.54" stop-color="#CF4599"/>
<stop offset="0.7" stop-color="#B63E97"/>
<stop offset="0.85" stop-color="#973694"/>
<stop offset="1" stop-color="#6F2C91"/>
</linearGradient>
<linearGradient id="paint4_linear_2_2" x1="225.46" y1="56.75" x2="211.36" y2="78.51" gradientUnits="userSpaceOnUse">
<stop stop-color="#EE4D9B"/>
<stop offset="0.21" stop-color="#EB4C9B"/>
<stop offset="0.38" stop-color="#E0499A"/>
<stop offset="0.54" stop-color="#CF4599"/>
<stop offset="0.7" stop-color="#B63E97"/>
<stop offset="0.85" stop-color="#973694"/>
<stop offset="1" stop-color="#6F2C91"/>
</linearGradient>
<linearGradient id="paint5_linear_2_2" x1="119.98" y1="92.03" x2="105.88" y2="113.78" gradientUnits="userSpaceOnUse">
<stop stop-color="#EE4D9B"/>
<stop offset="0.21" stop-color="#EB4C9B"/>
<stop offset="0.38" stop-color="#E0499A"/>
<stop offset="0.54" stop-color="#CF4599"/>
<stop offset="0.7" stop-color="#B63E97"/>
<stop offset="0.85" stop-color="#973694"/>
<stop offset="1" stop-color="#6F2C91"/>
</linearGradient>
<linearGradient id="paint6_linear_2_2" x1="146.35" y1="92.03" x2="132.25" y2="113.78" gradientUnits="userSpaceOnUse">
<stop stop-color="#EE4D9B"/>
<stop offset="0.21" stop-color="#EB4C9B"/>
<stop offset="0.38" stop-color="#E0499A"/>
<stop offset="0.54" stop-color="#CF4599"/>
<stop offset="0.7" stop-color="#B63E97"/>
<stop offset="0.85" stop-color="#973694"/>
<stop offset="1" stop-color="#6F2C91"/>
</linearGradient>
<linearGradient id="paint7_linear_2_2" x1="172.72" y1="92.03" x2="158.62" y2="113.78" gradientUnits="userSpaceOnUse">
<stop stop-color="#EE4D9B"/>
<stop offset="0.21" stop-color="#EB4C9B"/>
<stop offset="0.38" stop-color="#E0499A"/>
<stop offset="0.54" stop-color="#CF4599"/>
<stop offset="0.7" stop-color="#B63E97"/>
<stop offset="0.85" stop-color="#973694"/>
<stop offset="1" stop-color="#6F2C91"/>
</linearGradient>
<linearGradient id="paint8_linear_2_2" x1="199.09" y1="92.03" x2="184.99" y2="113.78" gradientUnits="userSpaceOnUse">
<stop stop-color="#EE4D9B"/>
<stop offset="0.21" stop-color="#EB4C9B"/>
<stop offset="0.38" stop-color="#E0499A"/>
<stop offset="0.54" stop-color="#CF4599"/>
<stop offset="0.7" stop-color="#B63E97"/>
<stop offset="0.85" stop-color="#973694"/>
<stop offset="1" stop-color="#6F2C91"/>
</linearGradient>
<linearGradient id="paint9_linear_2_2" x1="225.46" y1="92.03" x2="211.36" y2="113.78" gradientUnits="userSpaceOnUse">
<stop stop-color="#EE4D9B"/>
<stop offset="0.21" stop-color="#EB4C9B"/>
<stop offset="0.38" stop-color="#E0499A"/>
<stop offset="0.54" stop-color="#CF4599"/>
<stop offset="0.7" stop-color="#B63E97"/>
<stop offset="0.85" stop-color="#973694"/>
<stop offset="1" stop-color="#6F2C91"/>
</linearGradient>
<linearGradient id="paint10_linear_2_2" x1="216.69" y1="168.73" x2="202.58" y2="190.49" gradientUnits="userSpaceOnUse">
<stop stop-color="#EE4D9B"/>
<stop offset="0.21" stop-color="#EB4C9B"/>
<stop offset="0.38" stop-color="#E0499A"/>
<stop offset="0.54" stop-color="#CF4599"/>
<stop offset="0.7" stop-color="#B63E97"/>
<stop offset="0.85" stop-color="#973694"/>
<stop offset="1" stop-color="#6F2C91"/>
</linearGradient>
<linearGradient id="paint11_linear_2_2" x1="199.14" y1="168.73" x2="185.04" y2="190.49" gradientUnits="userSpaceOnUse">
<stop stop-color="#EE4D9B"/>
<stop offset="0.21" stop-color="#EB4C9B"/>
<stop offset="0.38" stop-color="#E0499A"/>
<stop offset="0.54" stop-color="#CF4599"/>
<stop offset="0.7" stop-color="#B63E97"/>
<stop offset="0.85" stop-color="#973694"/>
<stop offset="1" stop-color="#6F2C91"/>
</linearGradient>
<linearGradient id="paint12_linear_2_2" x1="146.35" y1="168.73" x2="132.25" y2="190.49" gradientUnits="userSpaceOnUse">
<stop stop-color="#EE4D9B"/>
<stop offset="0.21" stop-color="#EB4C9B"/>
<stop offset="0.38" stop-color="#E0499A"/>
<stop offset="0.54" stop-color="#CF4599"/>
<stop offset="0.7" stop-color="#B63E97"/>
<stop offset="0.85" stop-color="#973694"/>
<stop offset="1" stop-color="#6F2C91"/>
</linearGradient>
<linearGradient id="paint13_linear_2_2" x1="128.8" y1="168.73" x2="114.7" y2="190.49" gradientUnits="userSpaceOnUse">
<stop stop-color="#EE4D9B"/>
<stop offset="0.21" stop-color="#EB4C9B"/>
<stop offset="0.38" stop-color="#E0499A"/>
<stop offset="0.54" stop-color="#CF4599"/>
<stop offset="0.7" stop-color="#B63E97"/>
<stop offset="0.85" stop-color="#973694"/>
<stop offset="1" stop-color="#6F2C91"/>
</linearGradient>
<linearGradient id="paint14_linear_2_2" x1="168.46" y1="172.89" x2="163.97" y2="191.92" gradientUnits="userSpaceOnUse">
<stop stop-color="#EE4D9B"/>
<stop offset="0.21" stop-color="#EB4C9B"/>
<stop offset="0.38" stop-color="#E0499A"/>
<stop offset="0.54" stop-color="#CF4599"/>
<stop offset="0.7" stop-color="#B63E97"/>
<stop offset="0.85" stop-color="#973694"/>
<stop offset="1" stop-color="#6F2C91"/>
</linearGradient>
<clipPath id="clip0_2_2">
<rect width="212.15" height="204.26" fill="white" transform="translate(35)"/>
</clipPath>
<clipPath id="clip1_2_2">
<rect width="78" height="118" fill="white" transform="translate(0 87)"/>
</clipPath>
</defs>
</svg>
