<svg xmlns="http://www.w3.org/2000/svg" viewBox="0 0 1080 668.52"><defs><style>.cls-1{fill:#fff;}.cls-2{fill:#a3cf62;}</style></defs><g id="Capa_2" data-name="Capa 2"><g id="Layer_1" data-name="Layer 1"><path class="cls-1" d="M93.1,178.36c-13.6,0-25.28-1-40.23-1-12.83,0-29.5,1-37.35,1C4.6,178.36,0,173.76,0,164.18,0,150,1.15,133,1.15,112.84c0-17.81-1-29.69-1-46.17,0-10.15,5.18-15.51,16.67-15.51,13,0,19.35,1.15,37.16,1.15,17.24,0,23.76-1,37.93-1,11.5,0,15.33,5.17,15.33,13.6,0,9.2-4.79,15.71-15.52,15.71-10.53,0-20.5-1-30.84-1-9,0-15.52.19-22.8.39-.38,7.28-.76,14-.95,21.07,7.47.19,14.75.19,20.11.19,7.28,0,15.52-1,22.41-1,9.39,0,14.37,3.83,14.37,13.79,0,10.92-5.17,15.33-14.37,15.33-7.47,0-14.17-.77-20.69-.77-5.55,0-13.6.2-21.83.58.19,7.09.38,13.41.57,19.54,6.9.19,13.41.38,19.92.38,12.45,0,21.08-.76,34.29-.76,10.16,0,15.9,4.21,15.9,15.7C107.85,173.38,102.68,178.36,93.1,178.36Z"/><path class="cls-1" d="M140,178.55c-11.88,0-18.39-6.13-18.39-17.62,0-6.71,1.53-19.54,1.53-28,0-18.78-1.53-25.29-1.53-34.1,0-9.39,5.55-15.52,15.9-15.52,9.57,0,14.56,4.41,15.9,19.16,5.74-13.22,18.2-20.88,33.71-20.88,23,0,33.91,14.36,33.91,37.93,0,14,.38,23.56,1,28.35.77,8,2.49,11.11,2.49,16.09,0,8.62-6.13,14.37-16.48,14.37-10,0-16.66-3.83-19.54-12.45-1.72-5.56-2.29-14.37-2.29-36.59,0-14.94-3.65-19.93-12.07-19.93-10.73,0-16.29,9.77-16.29,31,0,8,.58,16.86.58,20.69C158.42,172.61,151.33,178.55,140,178.55Z"/><path class="cls-1" d="M309.55,167.44c-3.63,7.47-8.81,10.73-15.13,10.73-10.15,0-16.66-6.32-16.66-15.9,0-14.37,3.83-26.05,3.83-63,0-24.9-2.11-37.16-2.11-44.63,0-11.88,6.32-19.16,18.2-19.16,13,0,17.43,6.51,17.81,20.11.39,10,.58,22.23.58,42.92,4.79-8.63,15.13-15,27.2-15,25.67,0,40.42,16.29,40.42,46.36,0,31-18.2,49.43-44.06,49.43C327.56,179.32,318,175.49,309.55,167.44Zm37.55-37.55c0-17.81-6.32-23.94-15.51-23.94-10.35,0-16.48,9.58-17,34.1-.2,3.63-.39,6.89-.58,10,4.41,5,9.77,7.47,15.71,7.47C340.59,157.48,347.1,149.05,347.1,129.89Z"/><path class="cls-1" d="M462,160.16c-6.52,12.84-18.2,19.16-29.89,19.16-26.43,0-37.55-13.79-37.55-44.25,0-15.14.39-24.72,1.92-36.59,1.53-11.11,8.05-16.29,17.82-16.29,12.45,0,18,6.51,18,17.63,0,9-3.06,16.86-3.06,33.33,0,12.45,4.4,19,12.83,19,8.82,0,14.95-7.29,14.95-25.1,0-14.75-1.34-22.41-1.34-30.27,0-10.53,5.17-16.86,18-16.86,12.46,0,19,5.75,19,18.59s-.58,17.81-.58,32.94c0,23.19,2.88,27.4,2.88,34.3,0,7.08-5.37,12.64-14.56,12.64-6.9,0-10.54-1.53-13.6-5.75C464.72,169.74,463,165.33,462,160.16Z"/><path class="cls-1" d="M580.8,86.41c9.58,2.87,13,7.28,13,14.55,0,6.71-5.17,10.54-11.11,10.54-3.07,0-5.18-.38-9.58-1.91-9.58-3.64-14.18-5-19.73-5-9.2,0-13,3.25-13,7.47,0,3.83,3.26,6.32,16.09,7.47,32.57,2.68,40.42,11.49,40.42,28,0,19-16.47,31.61-45.4,31.61-12.45,0-24.33-1.54-32.76-4.22-8.81-2.68-13.6-7.09-13.6-15.13,0-7.28,4.41-11.88,11.5-11.88,3.45,0,6.7,1.15,13,3.83,7.28,3.26,15,5.17,21.08,5.17,9,0,12.83-3.25,12.83-7.09,0-3.63-2.3-5.55-14.75-6.7-33.72-3.06-42.34-12.64-42.34-29.88,0-17.63,16.48-30.66,46.75-30.66C565.09,82.57,573,83.92,580.8,86.41Z"/><path class="cls-1" d="M659.91,105.37c-11.88,0-18.58,9.77-18.58,25.67,0,16.67,6.13,24.52,17.81,24.52,5.94,0,8.82-1.53,15.14-5.94,5-3.44,7.86-4,11.3-4,6.32,0,12.07,5.17,12.07,13,0,10.15-14,20.3-39.46,20.3-34.87,0-53.26-20.11-53.26-46.93,0-30.27,19.35-50,52.68-50,28,0,39.85,9,39.85,19.73,0,8-5.17,13-11.69,13-3.44,0-6.7-.77-12.07-4.41C668.53,106.9,665.47,105.37,659.91,105.37Z"/><path class="cls-1" d="M768.53,137.75a76.64,76.64,0,0,0-11.31-1c-11.49,0-16.47,5.17-16.47,11.69s5,10.72,12.26,10.72C761.63,159.2,767.38,154,768.53,137.75Z"/><path class="cls-1" d="M814.31,163.23c0,7.66-8.62,14.37-18.77,14.37-11.12,0-18.21-4.42-21.06-15.33-6,10.91-17.83,16.48-33,16.48-21.06,0-35-10.35-35-29.13,0-15.89,12.82-30.06,47.14-30.06a80.51,80.51,0,0,1,14.54,1.53c-1.34-12.47-5.92-16.66-14.93-16.66-7.09,0-12.46,2.08-19.17,6.69A19.81,19.81,0,0,1,722.92,115C716,115,711,110.15,711,102.7c0-10.35,12.67-20.33,44.64-20.33,31.06,0,46.75,13.43,46.75,40.45,0,30.82.76,33.52,3.26,33.52,1.14,0,2.11-.79,3.25-.79C812.2,155.55,814.31,157.87,814.31,163.23Z"/><path class="cls-1" d="M935.18,160c-6.71,13.79-20.31,20.5-34.29,20.5C877.71,180.47,861,164,861,133.53c0-26.24,14.18-50.76,44.06-50.76,9,0,17.43,2.49,25.86,10,.39-18.58.77-33.14,1-38.7.77-13.6,6.71-18.39,18.2-18.39,12.07,0,17.63,5.17,17.63,18.58,0,12.45-2.3,37.17-2.3,70.5,0,23.18,1.72,28.74,1.72,38.31,0,10.35-5.36,15.71-16.09,15.71C941.5,178.74,936.9,173.57,935.18,160Zm-4.6-34.29c0-4.6.19-9.2.19-13.6-4.79-4.79-10-7.28-14.56-7.28-11.49,0-18.77,10.53-18.77,28.54,0,16.28,6.13,24.52,15.71,24.52C923.3,157.86,930.2,148.67,930.58,125.68Z"/><path class="cls-1" d="M1047.24,112.84c0-5.36-4.6-10-12.65-10-9.38,0-16.47,7.09-19.15,19.16a69.1,69.1,0,0,0,15.71,1.92C1041.68,124,1047.24,119.36,1047.24,112.84Z"/><path class="cls-1" d="M1079.24,156.52c0,11.49-18.39,21.85-47,21.85-31.59,0-52.47-16.49-52.47-46.17,0-29.88,20.5-50.38,55.73-50.38,27.22,0,44.46,13,44.46,30.44,0,20.12-16.86,29-46.37,29a92.13,92.13,0,0,1-19-2.12c1.55,12.06,8.06,17.43,19.35,17.43,6.72,0,14-2.67,22.41-8.42,4.81-3.08,8.07-4.22,11.32-4.22C1073.87,143.88,1079.24,148.48,1079.24,156.52Z"/><path class="cls-1" d="M2.2,303.57c0-29.31-1.34-43.1-1.34-51.91,0-10.73,6.71-18.59,18.58-18.59,12.26,0,17.44,6.9,17.44,18.78,0,19-.77,30.84-.77,57.66,0,22,1.72,38.89,1.72,51.72,0,11.11-5.74,17.24-17.81,17.24-11.69,0-18.39-4.59-18.39-17.62C1.63,349.93,2.2,335.37,2.2,303.57Z"/><path class="cls-1" d="M112.54,336.14a76.39,76.39,0,0,0-11.3-1c-11.49,0-16.47,5.17-16.47,11.69s5,10.72,12.26,10.72C105.65,357.59,111.39,352.42,112.54,336.14Z"/><path class="cls-1" d="M158.32,361.62c0,7.66-8.62,14.37-18.77,14.37-11.12,0-18.19-4.42-21.06-15.33-5.95,10.91-17.83,16.48-33,16.48-21.06,0-35-10.35-35-29.12,0-15.9,12.85-30.07,47.14-30.07a80.51,80.51,0,0,1,14.54,1.53c-1.32-12.46-5.92-16.66-14.93-16.66-7.09,0-12.46,2.08-19.15,6.69-3.46,2.31-7.09,3.84-11.11,3.84-6.9,0-11.88-4.81-11.88-12.26,0-10.35,12.64-20.32,44.64-20.32,31,0,46.72,13.43,46.72,40.44,0,30.82.79,33.52,3.26,33.52,1.17,0,2.11-.79,3.25-.79C156.23,353.94,158.32,356.26,158.32,361.62Z"/><path class="cls-1" d="M260,303.76c-11.88,0-18.58,9.77-18.58,25.67,0,16.67,6.13,24.52,17.81,24.52,5.94,0,8.81-1.53,15.14-5.93,5-3.45,7.85-4,11.3-4,6.32,0,12.07,5.18,12.07,13,0,10.15-14,20.3-39.47,20.3-34.86,0-53.25-20.11-53.25-46.93,0-30.27,19.35-50,52.68-50,28,0,39.85,9,39.85,19.73,0,8.05-5.18,13-11.69,13-3.45,0-6.7-.77-12.07-4.4C268.66,305.3,265.6,303.76,260,303.76Z"/><path class="cls-1" d="M346.24,332.69c0,14.18,1.15,20.5,1.15,27,0,10.73-6.32,17.24-17.44,17.24-14,0-18.58-6.32-18.58-16.66,0-5.56.77-16.67.77-27.78,0-16.67-1.53-26.63-1.53-32.76,0-10.34,5.17-17.24,18.39-17.24s17.81,5.75,17.81,17.24C346.81,309.13,346.24,316,346.24,332.69Z"/><path class="cls-1" d="M429,358.55c-6.51,12.84-18.2,19.16-29.88,19.16-26.44,0-37.55-13.79-37.55-44.25,0-15.14.38-24.71,1.91-36.59,1.54-11.11,8-16.29,17.82-16.29,12.45,0,18,6.52,18,17.63,0,9-3.07,16.86-3.07,33.33,0,12.45,4.41,19,12.84,19,8.81,0,14.94-7.28,14.94-25.1,0-14.75-1.34-22.41-1.34-30.27,0-10.53,5.17-16.85,18-16.85,12.45,0,19,5.74,19,18.58s-.57,17.81-.57,32.95c0,23.18,2.87,27.39,2.87,34.29,0,7.08-5.36,12.64-14.56,12.64-6.9,0-10.53-1.53-13.6-5.75C431.67,368.13,430,363.72,429,358.55Z"/><path class="cls-1" d="M546.61,358.36c-6.71,13.79-20.31,20.5-34.29,20.5-23.18,0-39.85-16.48-39.85-46.94,0-26.24,14.17-50.76,44.06-50.76,9,0,17.43,2.49,25.86,10,.39-18.58.77-33.14,1-38.7.77-13.6,6.71-18.39,18.2-18.39,12.07,0,17.62,5.17,17.62,18.58,0,12.46-2.3,37.17-2.3,70.5,0,23.18,1.73,28.74,1.73,38.32,0,10.34-5.37,15.7-16.09,15.7C552.93,377.13,548.33,372,546.61,358.36ZM542,324.07c0-4.6.19-9.19.19-13.6-4.79-4.79-10-7.28-14.56-7.28-11.49,0-18.77,10.54-18.77,28.54,0,16.29,6.13,24.52,15.71,24.52C534.73,356.25,541.63,347.06,542,324.07Z"/><path class="cls-1" d="M659.43,360.66c-5.93,10.92-17.81,16.47-32.95,16.47-21.07,0-35.05-10.34-35.05-29.11,0-15.9,12.83-30.08,47.12-30.08a81.63,81.63,0,0,1,14.56,1.53c-1.34-12.45-5.94-16.66-14.94-16.66-7.09,0-12.45,2.1-19.16,6.7-3.45,2.3-7.08,3.83-11.11,3.83-6.89,0-11.88-4.79-11.88-12.26,0-10.34,12.65-20.31,44.64-20.31,31,0,46.74,13.41,46.74,40.43,0,30.84.77,33.52,3.26,33.52,1.15,0,2.11-.77,3.26-.77,3.25,0,5.36,2.3,5.36,7.67,0,7.66-8.62,14.36-18.77,14.36C669.4,376,662.31,371.58,659.43,360.66Zm-5.93-24.52a76.64,76.64,0,0,0-11.31-1c-11.49,0-16.47,5.17-16.47,11.69s5,10.72,12.26,10.72C646.6,357.59,652.35,352.42,653.5,336.14Z"/><path class="cls-1" d="M775.52,358.36c-6.71,13.79-20.31,20.5-34.29,20.5-23.18,0-39.85-16.48-39.85-46.94,0-26.24,14.18-50.76,44.06-50.76,9,0,17.43,2.49,25.86,10,.39-18.58.77-33.14,1-38.7C773,238.82,779,234,790.46,234c12.07,0,17.62,5.17,17.62,18.58,0,12.46-2.3,37.17-2.3,70.5,0,23.18,1.73,28.74,1.73,38.32,0,10.34-5.36,15.7-16.09,15.7C781.84,377.13,777.24,372,775.52,358.36Zm-4.6-34.29c0-4.6.19-9.19.19-13.6-4.79-4.79-10-7.28-14.56-7.28-11.49,0-18.77,10.54-18.77,28.54,0,16.29,6.13,24.52,15.71,24.52C763.64,356.25,770.54,347.06,770.92,324.07Z"/><path class="cls-1" d="M913.24,376.75c-31.6,0-52.48-16.47-52.48-46.17,0-29.88,20.49-50.38,55.74-50.38,27.2,0,44.44,13,44.44,30.46,0,20.11-16.85,28.93-46.35,28.93a91.43,91.43,0,0,1-19-2.11c1.53,12.07,8,17.43,19.35,17.43,6.7,0,14-2.68,22.41-8.43,4.79-3.06,8-4.21,11.3-4.21,6.13,0,11.5,4.6,11.5,12.64C960.18,366.41,941.79,376.75,913.24,376.75Zm15-65.52c0-5.36-4.6-10-12.65-10-9.38,0-16.47,7.09-19.15,19.16a69.1,69.1,0,0,0,15.71,1.92C922.63,322.35,928.19,317.75,928.19,311.23Z"/><path class="cls-1" d="M991.4,376.94c-11.88,0-18.39-6.13-18.39-17.62,0-6.71,1.53-19.54,1.53-28,0-18.77-1.53-25.29-1.53-34.1,0-9.39,5.55-15.52,15.9-15.52,9.58,0,14.56,4.41,15.9,19.16,5.74-13.22,18.2-20.88,33.72-20.88,23,0,33.9,14.37,33.9,37.93,0,14,.39,23.56,1,28.35.77,8,2.49,11.11,2.49,16.09,0,8.62-6.13,14.37-16.48,14.37-10,0-16.66-3.83-19.54-12.45-1.72-5.56-2.29-14.37-2.29-36.59,0-14.94-3.64-19.92-12.07-19.92-10.73,0-16.29,9.77-16.29,31,0,8.05.58,16.86.58,20.69C1009.79,371,1002.7,376.94,991.4,376.94Z"/><path class="cls-1" d="M82.85,574.38c-14.56,0-25.48.57-32.57.57-11.3,0-15.9-6.9-15.9-15.9,0-8.81,5.56-15.13,16.48-15.13,4,0,8.24.19,12.83.38.39-11.3.77-22.41.77-32.37,0-8.63-.19-16.29-.19-23.57-5.75,3.07-11.69,5.18-16.67,5.18-9.19,0-14.17-4.41-14.17-14.37,0-8.62,3.64-14.18,13.79-16.86a122.7,122.7,0,0,0,26.44-10.73c5.36-2.87,9.38-3.83,13.6-3.83,10,0,15.51,6.32,15.51,16.86,0,14-1.53,32.18-1.53,51.53,0,10,.19,19.16.39,28.35,2.87-.19,5.36-.19,7.66-.19,11.87,0,18,6.32,18,14.75,0,8.62-6.7,15.9-19.34,15.9C99.13,575,91.85,574.38,82.85,574.38Z"/><path class="cls-1" d="M148.94,570.93c-9.77-3.45-14.95-9-14.95-18.39s5.56-16.09,14.75-16.09c4,0,8.24,1.72,14.18,5.17a38.25,38.25,0,0,0,20.69,5.75c11.88,0,17.81-4.6,17.81-13.61,0-8-4.78-12.83-18.39-12.83-12.26,0-20.88,4.21-27.58,4.21-9.58,0-16.09-4.79-16.09-14.94,0-6.51.76-11.49,1.15-24.14.38-11.11.19-16.47.57-23.18.58-11.49,6.9-14.17,15.14-14.17,10,0,17.43.57,32.18.57,13.79,0,24.9-1,30.84-1,14.18,0,19.16,7.09,19.16,15.71,0,9.77-7.09,16.09-19.16,16.09-5.56,0-10.92-.95-35.63-.95-3.45,0-6.32,0-8.62.19-.38,4.21-.58,9-.58,12.07v8c8.82-2.68,17.05-4.21,24.72-4.21,30.65,0,43.87,16.28,43.87,38.12,0,28.16-22.42,43.1-55.17,43.1C171.92,576.48,159.09,574.57,148.94,570.93Z"/><path class="cls-1" d="M313.67,576.48c-11.3,0-17.62-6.13-17.62-19.15,0-6.13.38-9.58.38-24.33,0-25.1-2.49-32-2.49-39.08,0-9,5.56-14.75,15.33-14.75,9.57,0,14.55,4,16.66,19.54,7.09-12.65,18-20.12,32-20.12,13,0,23,6.13,28,18.39,7.28-11.11,18.78-18.39,32.57-18.39,24.14,0,36,14,36,39.27,0,18.2,0,22.23.58,27.78.76,7.47,1.91,9.77,1.91,14.94,0,6.52-4.4,13.6-16.28,13.6-10.34,0-17.05-3.83-19.54-12.64-1.53-5.17-2.11-14.37-2.11-32,0-17.24-3.64-24.33-11.68-24.33-9.39,0-14.56,9-14.56,29.69,0,5.75,1.15,15.52,1.15,24.52,0,10-6.71,16.29-18.58,16.29s-18-6.13-18-18c0-6.13,1.15-15.52,1.15-23.56,0-20.88-4.41-27.4-12.26-27.4-9.39,0-15.52,9.39-15.52,31,0,6.7,1,13.21,1,20.88C331.68,571.5,325,576.48,313.67,576.48Z"/><path class="cls-1" d="M506.57,531.08c0,14.18,1.15,20.5,1.15,27,0,10.73-6.32,17.24-17.43,17.24-14,0-18.59-6.32-18.59-16.66,0-5.56.77-16.67.77-27.78,0-16.67-1.53-26.63-1.53-32.76,0-10.34,5.17-17.24,18.39-17.24s17.81,5.75,17.81,17.24C507.14,507.52,506.57,514.41,506.57,531.08Z"/><path class="cls-1" d="M541.43,575.33c-11.88,0-18.39-6.13-18.39-17.62,0-6.71,1.53-19.54,1.53-28,0-18.77-1.53-25.29-1.53-34.1,0-9.38,5.55-15.52,15.9-15.52,9.58,0,14.56,4.41,15.9,19.16,5.75-13.22,18.2-20.88,33.72-20.88,23,0,33.91,14.37,33.91,37.93,0,14,.38,23.56.95,28.35.77,8.05,2.49,11.11,2.49,16.1,0,8.62-6.13,14.36-16.47,14.36-10,0-16.67-3.83-19.54-12.45-1.73-5.56-2.3-14.37-2.3-36.59,0-14.94-3.64-19.92-12.07-19.92-10.73,0-16.28,9.77-16.28,31,0,8,.57,16.86.57,20.69C559.82,569.4,552.73,575.33,541.43,575.33Z"/><path class="cls-1" d="M705.22,556.94c-6.52,12.84-18.2,19.16-29.89,19.16-26.44,0-37.55-13.79-37.55-44.25,0-15.14.39-24.71,1.92-36.59,1.53-11.11,8-16.29,17.81-16.29,12.46,0,18,6.52,18,17.63,0,9-3.06,16.86-3.06,33.33,0,12.46,4.4,19,12.83,19,8.81,0,15-7.28,15-25.1,0-14.75-1.35-22.41-1.35-30.26,0-10.54,5.18-16.86,18-16.86,12.45,0,19,5.74,19,18.58s-.58,17.81-.58,33c0,23.18,2.88,27.39,2.88,34.29,0,7.09-5.37,12.64-14.56,12.64-6.9,0-10.54-1.53-13.61-5.74C707.9,566.52,706.17,562.11,705.22,556.94Z"/><path class="cls-1" d="M800.42,576.87c-26,0-37.74-13-37.74-44.83,0-10.92,0-19.92-.19-27.2h-2.3c-8.81,0-14.37-3.64-14.37-12.84,0-6.89,4.22-11.3,14-11.3h2.49c-.19-7.86-.39-12.26-.39-17.24,0-13.22,6.13-19.54,19.55-19.54,11.87,0,15.89,6.51,15.89,18,0,1.91-.19,9.19-.38,18.77,9.58-.19,17.62-.58,20.69-.58,11.5,0,15.33,4,15.33,12.07,0,9-5.94,12.84-15.33,12.84-2.11,0-11.49-.38-21.07-.77-.19,10.73-.39,21.27-.39,28.74,0,13.41,3.65,17.81,10.93,17.81,2.68,0,5-1,8.81-3.64a10.8,10.8,0,0,1,6.51-2.3c7.09,0,11.3,6.33,11.3,12.46C833.75,569.2,819.58,576.87,800.42,576.87Z"/><path class="cls-1" d="M891.22,500.24c-10.54,0-16.67,9.58-16.67,26.44,0,18.58,6.9,27.39,17.63,27.39,9.38,0,16.09-9,16.09-25.67C908.27,509.63,902.14,500.24,891.22,500.24Z"/><path class="cls-1" d="M945,525.91c0,31.23-21.26,49.42-52.88,49.42S838,559.63,838,528.4c0-26.81,17.63-49,53.06-49C924,479.36,945,496.22,945,525.91Z"/><path class="cls-1" d="M1028.57,483.19c9.58,2.87,13,7.28,13,14.56,0,6.7-5.17,10.53-11.11,10.53-3.06,0-5.17-.38-9.57-1.91-9.59-3.64-14.18-5-19.74-5-9.19,0-13,3.26-13,7.47,0,3.83,3.25,6.32,16.09,7.47,32.56,2.68,40.42,11.5,40.42,28,0,19-16.48,31.61-45.4,31.61-12.46,0-24.33-1.53-32.76-4.21-8.81-2.69-13.6-7.09-13.6-15.14,0-7.28,4.4-11.88,11.49-11.88,3.45,0,6.71,1.15,13,3.84,7.28,3.25,14.94,5.17,21.07,5.17,9,0,12.83-3.26,12.83-7.09,0-3.64-2.29-5.56-14.74-6.71-33.72-3.06-42.34-12.64-42.34-29.88,0-17.62,16.47-30.65,46.74-30.65C1012.86,479.36,1020.71,480.7,1028.57,483.19Z"/><circle class="cls-2" cx="328.8" cy="255" r="20.41"/><circle class="cls-2" cx="752.4" cy="146.36" r="20.41"/><circle class="cls-2" cx="1033.28" cy="111.59" r="20.41"/><circle class="cls-2" cx="489.14" cy="453.4" r="20.41"/><circle class="cls-2" cx="95.86" cy="345.53" r="20.41"/><circle class="cls-2" cx="891.41" cy="527.63" r="20.41"/><path class="cls-2" d="M1029.8,67.55a6.14,6.14,0,0,1-4.37-1.82l-.26-.27a6.36,6.36,0,1,1,9.18-8.8,6.41,6.41,0,0,1-4.55,10.89Z"/><path class="cls-2" d="M779.32,58.55a6.36,6.36,0,0,1-4.15-11.18l.37-.33a6.36,6.36,0,1,1,8.29,9.65l-.37.32A6.34,6.34,0,0,1,779.32,58.55Zm231.91-7.34a6.31,6.31,0,0,1-3.87-1.32l-.35-.26a6.36,6.36,0,0,1,7.66-10.15l.44.33a6.36,6.36,0,0,1-3.88,11.4ZM799.37,43.4a6.36,6.36,0,0,1-3.51-11.66l.43-.29a6.36,6.36,0,0,1,7,10.64l-.39.26A6.36,6.36,0,0,1,799.37,43.4Zm191-6.1a6.34,6.34,0,0,1-3.18-.86l-.39-.22A6.36,6.36,0,0,1,993,25.16l.47.28a6.36,6.36,0,0,1-3.19,11.86ZM821.16,30.93a6.36,6.36,0,0,1-2.77-12.08l.44-.22a6.36,6.36,0,1,1,5.54,11.45l-2.77-5.72,2.57,5.82-.25.12A6.32,6.32,0,0,1,821.16,30.93Zm146.63-4.72a6.38,6.38,0,0,1-2.4-.48l-.46-.19a6.35,6.35,0,0,1,4.82-11.76l.46.18a6.36,6.36,0,0,1-2.42,12.25ZM844.41,21.47A6.36,6.36,0,0,1,842.49,9l.47-.15A6.36,6.36,0,0,1,846.81,21L844.88,15l1.73,6.13-.27.09A6.47,6.47,0,0,1,844.41,21.47ZM944,18.26a6.22,6.22,0,0,1-1.64-.22L944,11.9,942.16,18l-.29-.07a6.36,6.36,0,1,1,3.27-12.29l.47.12A6.36,6.36,0,0,1,944,18.26Zm-75.24-2.93a6.36,6.36,0,0,1-1.13-12.61l.56-.1a6.36,6.36,0,1,1,2.12,12.54l-.41.07A6.27,6.27,0,0,1,868.75,15.33Zm50.55-1.61-.68,0-.59-.07A6.36,6.36,0,1,1,919.58,1L920,1a6.36,6.36,0,0,1-.67,12.68Zm-25.58-1A6.36,6.36,0,0,1,893.52,0l.5,0a6.36,6.36,0,0,1,.38,12.72h-.68Z"/><path class="cls-2" d="M761.56,76a6.35,6.35,0,0,1-4.78-10.54,6.46,6.46,0,0,1,9-.73,6.26,6.26,0,0,1,.78,8.84l-.22.26A6.34,6.34,0,0,1,761.56,76Z"/><path class="cls-2" d="M686.88,243.09h-.61a6.36,6.36,0,0,1,.09-12.72H687a6.36,6.36,0,0,1-.09,12.72Zm-25.76-2.79a6.24,6.24,0,0,1-1.13-.1l-.5-.09a6.36,6.36,0,1,1,2.24-12.52l.5.09a6.36,6.36,0,0,1-1.11,12.62Zm50.87-.47a6.36,6.36,0,0,1-1.9-12.43l.43-.14a6.36,6.36,0,0,1,3.91,12.1l-.54.17A6.38,6.38,0,0,1,712,239.83Zm-355.45-2.24a6.36,6.36,0,0,1-2.32-12.28l.44-.17A6.35,6.35,0,1,1,359.35,237l-.5.21A6.47,6.47,0,0,1,356.54,237.59Zm279.26-3a6.66,6.66,0,0,1-1.59-.2l-.4-.11a6.36,6.36,0,1,1,3-12.36l.58.15a6.36,6.36,0,0,1-1.58,12.52Zm-25.07-6.7a6.18,6.18,0,0,1-1.68-.23l-.49-.13a6.36,6.36,0,1,1,3.35-12.27l.49.13a6.36,6.36,0,0,1-1.67,12.5Zm123.49-1.05a6.36,6.36,0,0,1-4.36-11l.32-.3a6.36,6.36,0,0,1,8.81,9.18l-.42.39A6.35,6.35,0,0,1,734.22,226.89Zm-148.57-5.6a6.66,6.66,0,0,1-1.59-.2l-.39-.1a6.36,6.36,0,0,1,3-12.37l.6.15a6.36,6.36,0,0,1-1.58,12.52Zm-179.9,0a6.36,6.36,0,0,1-1.59-12.52l.49-.12a6.36,6.36,0,1,1,3.18,12.31l-1.59-6.16,1.39,6.22-.29.07A6.3,6.3,0,0,1,405.75,221.25Zm154.62-5.76a6.36,6.36,0,0,1-1.22-.11l-.6-.13a6.35,6.35,0,1,1,2.64-12.43l.39.07a6.36,6.36,0,0,1-1.21,12.6ZM431,215.41a6.36,6.36,0,0,1-1.2-12.6l.5-.1a6.36,6.36,0,0,1,2.42,12.49l-.5.09A6.31,6.31,0,0,1,431,215.41Zm25.62-4.07a6.36,6.36,0,0,1-.75-12.67l.52-.06a6.36,6.36,0,1,1,1.48,12.63l-.49.06A6.45,6.45,0,0,1,456.63,211.34Zm78.15-.07a6.39,6.39,0,0,1-.75,0l-.61-.08a6.36,6.36,0,1,1,1.7-12.6l.4,0a6.36,6.36,0,0,1-.74,12.67Zm-52.3-2.07a6.36,6.36,0,0,1-.28-12.71l.51,0a6.36,6.36,0,0,1,.56,12.71l-.51,0Zm26.45,0h-.29l-.41,0a6.36,6.36,0,0,1-6.17-6.54,6.47,6.47,0,0,1,6.54-6.17l.61,0a6.36,6.36,0,0,1-.28,12.72Zm240.24-3.26a6.36,6.36,0,0,1-5.81-8.94l.2-.42a6.41,6.41,0,0,1,8.46-3.18,6.32,6.32,0,0,1,3.15,8.37.83.83,0,0,0-.07.13l-.12.26A6.35,6.35,0,0,1,749.17,205.89Z"/><path class="cls-2" d="M383.34,228.24l-.23.08,0,0-.26.1a6.36,6.36,0,0,1-3.92-12.11l.23-.07v0l.28-.07a6.36,6.36,0,1,1,3.92,12.1Z"/><path class="cls-2" d="M117.47,260.5a6.36,6.36,0,0,1-3.29-11.8l.48-.29a6.36,6.36,0,0,1,6.49,10.94l-.4.24A6.33,6.33,0,0,1,117.47,260.5Zm23.07-11.84A6.36,6.36,0,0,1,138,236.47l.5-.22a6.36,6.36,0,0,1,5,11.69l-.43.19A6.36,6.36,0,0,1,140.54,248.66Zm152.15-2.48a6.44,6.44,0,0,1-2.34-.45l-.44-.17a6.36,6.36,0,0,1,4.62-11.85l.51.2a6.36,6.36,0,0,1-2.35,12.27Zm-127.75-6.29a6.36,6.36,0,0,1-1.7-12.49l.43-.12a6.36,6.36,0,0,1,3.52,12.22l-.55.16A6.27,6.27,0,0,1,164.94,239.89ZM268,238.24a6.32,6.32,0,0,1-1.59-.21l-.38-.09A6.36,6.36,0,1,1,269,225.57l.61.15A6.36,6.36,0,0,1,268,238.24Zm-77.75-3.86a6.36,6.36,0,0,1-.93-12.65l.52-.07a6.36,6.36,0,1,1,1.85,12.58l-.49.07A6.16,6.16,0,0,1,190.26,234.38Zm52.25-.82a6.44,6.44,0,0,1-.75-.05l-.51-.06a6.36,6.36,0,1,1,1.51-12.62l.49.06a6.36,6.36,0,0,1-.74,12.67Zm-26.4-1.32a6.36,6.36,0,0,1-.1-12.72h.51a6.36,6.36,0,0,1,.19,12.72h-.6Z"/><path class="cls-2" d="M452.38,453.3a6.24,6.24,0,0,1-3.21-.88l-.47-.27a6.36,6.36,0,0,1,6.49-10.94l.41.24a6.36,6.36,0,0,1-3.22,11.85Zm-22.76-12.45a6.31,6.31,0,0,1-2.87-.69l-.38-.19A6.36,6.36,0,1,1,432,428.56l.53.26a6.36,6.36,0,0,1-2.89,12ZM405.94,430.3a6.19,6.19,0,0,1-2.26-.42l-.53-.2a6.36,6.36,0,0,1,4.63-11.85l.42.17a6.36,6.36,0,0,1-2.26,12.3Zm-204.33-3.14H201a6.36,6.36,0,0,1,.17-12.72h.42a6.36,6.36,0,1,1,0,12.71Zm25.36-1.4a6.36,6.36,0,0,1-.73-12.67l.59-.07a6.36,6.36,0,0,1,1.31,12.65l-.42.05A6.28,6.28,0,0,1,227,425.76Zm-51.2-.61a6.16,6.16,0,0,1-1-.07l-.48-.07a6.36,6.36,0,0,1,1.84-12.59l.52.08a6.36,6.36,0,0,1-.93,12.65ZM381.38,422a6.55,6.55,0,0,1-1.79-.25l-.38-.11a6.36,6.36,0,1,1,3.35-12.27l.6.17A6.36,6.36,0,0,1,381.38,422Zm-128.77-.16a6.36,6.36,0,0,1-1.12-12.62l.5-.09a6.36,6.36,0,0,1,2.24,12.52l-.5.09A6.06,6.06,0,0,1,252.61,421.84Zm-102.2-2.1a6.57,6.57,0,0,1-1.79-.26l-.38-.11a6.36,6.36,0,0,1,3.35-12.27l.6.17a6.36,6.36,0,0,1-1.78,12.47Zm127.72-2.47a6.36,6.36,0,0,1-1-12.64l.52-.08a6.36,6.36,0,1,1,2,12.55l-.49.08A6.09,6.09,0,0,1,278.13,417.27Zm78-.95a7.26,7.26,0,0,1-1-.08l-.51-.09a6.36,6.36,0,1,1,2.06-12.55l.49.08a6.36,6.36,0,0,1-1,12.64Zm-52.23-2.27a6.36,6.36,0,0,1-.46-12.7l.42,0A6.35,6.35,0,0,1,304.94,414l-.6,0Zm26.44-.46H330l-.5,0a6.36,6.36,0,1,1,.56-12.71l.51,0a6.36,6.36,0,0,1-.28,12.71Zm-204.41-2.31a6.36,6.36,0,0,1-2.39-.47l-.5-.21a6.36,6.36,0,1,1,4.85-11.75l.44.18a6.36,6.36,0,0,1-2.4,12.25ZM102.54,400a6.37,6.37,0,0,1-3.06-.79L99,399a6.36,6.36,0,0,1,6.21-11.1l.41.23A6.36,6.36,0,0,1,102.54,400Z"/><path class="cls-2" d="M687.67,668.52h-.25a6.48,6.48,0,0,1-6.49-6.36,6.25,6.25,0,0,1,6.23-6.36h.51a6.36,6.36,0,0,1,0,12.72Zm25.4-1.12a6.36,6.36,0,0,1-.55-12.69l.5-.05a6.36,6.36,0,0,1,1.12,12.67l-.51,0Zm-51.3,0a5.25,5.25,0,0,1-.56,0l-.51,0a6.36,6.36,0,1,1,1.12-12.67l.5.05a6.36,6.36,0,0,1-.55,12.69Zm77-3.38a6.36,6.36,0,0,1-1.12-12.62l.61-.1a6.36,6.36,0,0,1,2,12.55l-.4.07A6.06,6.06,0,0,1,738.78,664Zm-102.72,0a7.14,7.14,0,0,1-1.12-.09l-.51-.1a6.35,6.35,0,1,1,2.24-12.51l.48.08A6.36,6.36,0,0,1,636.06,664Zm128.05-5.56a6.36,6.36,0,0,1-1.58-12.51l.41-.11a6.36,6.36,0,0,1,3.34,12.27l-.58.15A6.19,6.19,0,0,1,764.11,658.45Zm-153.38-.05a6.3,6.3,0,0,1-1.59-.2l-.58-.16a6.36,6.36,0,0,1,3.35-12.27l.41.11a6.36,6.36,0,0,1-1.59,12.52Zm178.17-7.59a6.36,6.36,0,0,1-2.15-12.35l.59-.21a6.36,6.36,0,1,1,4.08,12l-.36.13A6.56,6.56,0,0,1,788.9,650.81ZM586,650.61a6.44,6.44,0,0,1-2.23-.4l-.4-.15a6.36,6.36,0,0,1,4.3-12l.56.21A6.36,6.36,0,0,1,586,650.61Zm227-9.41a6.36,6.36,0,0,1-2.63-12.15l.58-.26a6.36,6.36,0,1,1,5,11.69l-.35.15A6.24,6.24,0,0,1,813,641.2Zm-251-.46a6.4,6.4,0,0,1-2.62-.56l-.53-.25a6.36,6.36,0,1,1,5.39-11.52l.38.18A6.36,6.36,0,0,1,562,640.74Zm274.31-11a6.36,6.36,0,0,1-3-12l.42-.23a6.36,6.36,0,1,1,6,11.19l-.48.26A6.46,6.46,0,0,1,836.31,629.77Zm-297.4-.86a6.37,6.37,0,0,1-3.06-.79l-.55-.31a6.36,6.36,0,1,1,6.35-11l.33.19a6.36,6.36,0,0,1-3.07,11.93Zm319.76-12.32a6.36,6.36,0,0,1-3.42-11.72l.38-.25a6.36,6.36,0,0,1,6.93,10.67l-.47.3A6.32,6.32,0,0,1,858.67,616.59Zm21.27-14.9A6.36,6.36,0,0,1,876.51,590l.39-.24a6.35,6.35,0,0,1,6.92,10.66l-.47.3A6.28,6.28,0,0,1,879.94,601.69ZM516.88,615.22a6.28,6.28,0,0,1-3.55-1.09l-.44-.3A6.36,6.36,0,1,1,520,603.31l.4.27a6.36,6.36,0,0,1-3.55,11.64ZM496,599.77a6.32,6.32,0,0,1-4-1.42l-.4-.32a6.36,6.36,0,1,1,8-9.88l.39.32a6.36,6.36,0,0,1-4,11.3Z"/></g></g></svg>