<svg xmlns="http://www.w3.org/2000/svg" viewBox="0 0 1000 1000"><defs><style>.cls-1{fill:#2790a5;}.cls-2{fill:#fff;}</style></defs><g id="Capa_2" data-name="Capa 2"><g id="Layer_1" data-name="Layer 1"><circle class="cls-1" cx="500" cy="500" r="500"/><path class="cls-2" d="M472.87,658H650.56V389.76H472.87Zm56.7-223.72q32.46-.21,64.77,0c7.85.07,11.85,4.13,11.85,11.09s-4.13,11-12,11.09c-10.75.14-21.56,0-32.31,0s-21.64.14-32.39,0c-7.64-.13-12.19-4.27-12.4-10.74C517,438.75,521.51,434.34,529.57,434.27Zm-.14,44.78c21.57-.13,43.21-.13,64.77,0,7.72.07,12,4.21,12.06,11.1s-4,11-11.85,11.09c-11.09.21-22.12.07-33.14.07-10.54,0-21.09.14-31.63,0-7.78-.14-12.4-4.27-12.61-10.61C516.83,483.94,521.65,479.12,529.43,479.05Z"/><path class="cls-2" d="M237.5,523.84c14.27,0,27.91.41,41.48-.21,3.72-.14,7.93-2.48,10.82-5,41.75-38,98.8-38.1,140.21.07,5.86,5.31,11.92,6.2,19.16,4.34v-99.9H408c-22.67,0-45.33.34-68-.21-4.2-.14-9.23-3.1-12-6.34-1.79-2-1.52-8.41.34-10.34a19.91,19.91,0,0,1,12.47-5.51c33.21-.41,66.49-.27,99.7-.27h8.69V356.07c-2.9-.14-5.45-.35-7.93-.35q-43.31-.11-86.54,0c-30.38,0-60.77-.07-91.15.07-10.68.07-15.23,7.37-11.37,16.95,3.37,8.68,6.13,17.57,9.65,27.7,8.74,0,19.22-.07,29.69.07,7.17.13,12.33,5,12.4,11.16S299,422.76,291.8,423c-8,.27-16,.48-24,0-7.1-.42-12.88.2-16.54,7.64-1.31,2.76-4.61,5-7.44,6.55-5.37,3-7.23,7.37-7.16,13.37.13,22.39,0,44.78.07,67.17A53.34,53.34,0,0,0,237.5,523.84Z"/><path class="cls-2" d="M415.41,535.69c-34.25-31.35-77.45-31.08-111.49.62-6.89,6.41-14.81,10-24.32,9.85-8.27-.14-16.53-.07-24.73,0H237v89.43c13.85,0,26.94.14,40,0a38,38,0,0,1,27.84,11.1c32.31,30.59,77.86,30.45,110.45-.28,7.64-7.16,16.39-11.23,27.07-10.82a57.3,57.3,0,0,0,6.76-.55V546.51a58.62,58.62,0,0,0-7.31-.42C431.32,546.92,422.91,542.58,415.41,535.69Zm-22.67,88.88c-11.3.28-22.6.07-33.9.07-10.34.07-20.6.14-30.87,0-7.72-.07-12.26-4-12.61-10.54s4-11.72,11.51-11.78c22.11-.42,44.23-.35,66.35-.07,7,.07,11.51,5,11.57,11C404.86,619.61,400.11,624.43,392.74,624.57ZM403.42,573c-2.14,3.38-7.44,6.27-11.58,6.62-10.47,1-21.08.34-31.62.34-10.82,0-21.64.14-32.46-.07-7.78-.13-12.67-4.89-12.47-11.64.14-6.41,4.69-10.82,12.47-10.89,21.36-.2,42.72-.27,64.08,0C401.83,557.53,408,565.73,403.42,573Z"/><path class="cls-2" d="M449.65,668.87V659c-7.79-.69-13.92-1.17-19.64,4.34-39.48,38-99.83,38-140.14.28-2.34-2.14-5.58-4.69-8.41-4.76-14.6-.48-29.21-.2-44.71-.2,0,29.69-.07,58.29,0,86.81,0,22,14,36.17,36.17,36.17q86.5.11,173-.13a68.09,68.09,0,0,0,6.82-.49c-1.1-13.29-2.69-25.63-3-38C449.37,718.28,449.65,693.61,449.65,668.87Z"/><path class="cls-2" d="M651.05,366.12c0-11.85.2-23.15,0-34.45-.83-32.65-15.85-57.05-42.79-75.17-7.37-5-14.47-12-18.81-19.63-4.2-7.44-4.62-17-6.89-26.25h-43c.49,19.63-6.06,35-22.66,45.75-42,27.14-48.44,65.45-43.62,109.75Z"/><path class="cls-2" d="M651.11,704V680.79h-178a14.09,14.09,0,0,0-.75,2.69c-.07,24.94-.14,49.88,0,74.83.07,10.33,5.3,17.77,14.67,21.63s17.37.62,24.6-6.13c10.54-9.78,21.57-9.78,32.45-.48,12.41,10.61,22.74,10.75,35,.34,11.44-9.71,22.05-9.78,33,.28,7.51,6.89,15.78,10,25.35,5.58s13.85-12.4,13.78-23C651,739,651.11,721.51,651.11,704Z"/><path class="cls-2" d="M674.54,512.47c10.13,0,19.64-.07,29.14,0,9.93.14,15.16,4.34,14.89,11.64-.28,7.1-5.45,11-14.75,11-9.71.07-19.43,0-29.28,0v22.12c10.82,0,21.08-.21,31.35.07,7.85.2,12.82,5,12.75,11.64s-5.1,10.82-13.23,11c-10,.07-20,0-30.73,0v89.3H757q2.9-95.08,5.79-189.61H674.54Z"/><path class="cls-2" d="M763,429.93A35.34,35.34,0,0,0,749,404.16c-28.52-22.05-42.44-50.78-41.2-86.89.28-9.37,0-18.74,0-28.52H667.51c2.21,17.43,5.79,34.11,6.2,50.78.9,36.31.21,72.55.21,108.86,0,2.48.28,5,.41,7.44h88.82C763.15,446.81,763.63,438.26,763,429.93Z"/><path class="cls-2" d="M673.92,692.78c0,17.09-.07,33.49,0,50,.07,12.81,1,25.7-6.68,38.58,23.35,0,45,.48,66.49-.21,11.09-.41,18.74-9,19.56-20.39s1-23.08,1.24-34.66c.21-11,.07-22,.07-33.28Z"/><path class="cls-2" d="M595.3,187.12c0-7.51.21-14.19-.06-20.81-.21-7.92-3.93-12.12-11.86-12.33-14.4-.34-28.8-.21-43.27,0-5.92.07-10.88,2.89-11.43,9.23-.69,7.79-.21,15.71-.21,23.91Z"/><path class="cls-2" d="M717.81,266.08c0-13.3-8.2-21.84-21.91-22.46-11-.55-22-.41-33.07,0-8.68.27-15.71,4-20.4,13.44,4.14,3,8.13,8.4,12.4,8.61C675.57,266.56,696.38,266.08,717.81,266.08Z"/></g></g></svg>