<svg xmlns="http://www.w3.org/2000/svg" viewBox="0 0 1000 1000"><defs><style>.cls-1{fill:#2790a5;}.cls-2{fill:#fff;}</style></defs><g id="Capa_2" data-name="Capa 2"><g id="Layer_1" data-name="Layer 1"><circle class="cls-1" cx="500" cy="500" r="500"/><path class="cls-2" d="M509.61,406.61c-88.39,0-176.78.14-265.17-.29-6.42,0-14.4-2.58-18.88-6.86-7.89-7.55-4.08-18.73,7.49-25.87q77.64-47.94,155.39-95.72c36.13-22.25,72.43-44.23,108.33-66.86,9.9-6.24,18.06-6.15,28,0Q656,292.26,787.54,372.94c14.16,8.73,16.45,23.21,4.53,30.55-4.1,2.52-10,3-15,3Q643.33,406.75,509.61,406.61Zm.95-67.81c3.74,0,7.49.16,11.23,0,10-.5,16.64-6.57,17.28-15.67s-6.35-17.21-16.34-17.93a157.76,157.76,0,0,0-24.69.06,17.08,17.08,0,0,0-15.66,17.49c.4,9.06,7.08,15.47,16.94,16C503.06,339,506.81,338.8,510.56,338.8Z"/><path class="cls-2" d="M510.77,783.36H246.7c-20.32,0-24.82-4.61-24.83-25.35q0-14.67,0-29.34c0-19.53,4.84-24.25,24.81-24.25H774.8c20.34,0,24.82,4.59,24.83,25.35q0,15.22,0,30.47c0,18-5.25,23.12-23.67,23.12Z"/><path class="cls-2" d="M263,440.92H758.87c0,7,1.85,14.67-.56,20.61-2.13,5.23-8.62,9.22-14,12.38-2.81,1.66-7.35.41-11.11.41-147,0-294-.35-441,.3C262.05,474.76,260.39,465.42,263,440.92Z"/><path class="cls-2" d="M352.22,509.05V669.66H285.49V509.05Z"/><path class="cls-2" d="M413.84,508.59h66V669.91h-66Z"/><path class="cls-2" d="M541.49,669.6V508.75h66.25V669.6Z"/><path class="cls-2" d="M669.8,508.55h66V669.91h-66Z"/></g></g></svg>