<svg xmlns="http://www.w3.org/2000/svg" viewBox="0 0 1000 1000"><defs><style>.cls-1{fill:#2790a5;}.cls-2{fill:#fff;}</style></defs><g id="Capa_2" data-name="Capa 2"><g id="Layer_1" data-name="Layer 1"><circle class="cls-1" cx="500" cy="500" r="500"/><path class="cls-2" d="M328.87,628.77l-62.18,20.32c-8.1-14.75-15.54-28.33-23-41.9q-25.11-45.77-50.22-91.54c-14.53-26.52-7.49-50.2,19-64.69Q361.16,369.48,509.81,287.9c.51-.28,1.06-.48,2.2-1,1,1.59,2,3.15,2.92,4.79q44.76,81.44,89.61,162.81c2.76,5,2.4,7.9-1.87,11.33-12.73,10.22-25.31,20.63-37.88,31.05-2.57,2.13-4.33,2.05-7-.2-28.77-24-62.05-34.83-99.42-33.15C396.17,466.32,339.86,516,329.07,577.32A148.94,148.94,0,0,0,328.87,628.77ZM244,463.21c-18.38,0-32.33,14.16-32.23,32.67a32.06,32.06,0,0,0,32,31.86c18.15.16,32.43-14.13,32.49-32.52C276.24,477.29,262.05,463.19,244,463.21Z"/><path class="cls-2" d="M488.69,744.56q143.64,0,287.28.1c3.75,0,8,.63,11.15,2.44,4.68,2.65,6.24,14.63,3.8,22-1.88,5.66-5.53,7.76-13.62,7.76h-577c-10.62,0-14.29-3.63-14.33-14,0-1.38,0-2.76,0-4.14,0-10.53,3.51-14.07,14.22-14.11,17.54-.07,35.08,0,52.61,0Z"/><path class="cls-2" d="M543.37,722.64c-25,0-50.06.15-75.08,0A121.15,121.15,0,0,1,351.57,630C334.93,561.75,383.7,492.75,454,485.84c46.7-4.59,84.09,12.78,111.17,50.9,21.44,30.17,48.35,53.07,82.45,67.55A200.91,200.91,0,0,1,666,613.54c35.87,19.73,32.83,56.83,18,79.7-11,17-27.85,25.78-47.32,27.76-18.55,1.87-37.35,1.34-56,1.65-12.41.2-24.83,0-37.24,0Zm1.09-21.43v-.09c26.2,0,52.4.18,78.59-.09,11.27-.12,22.29-2.12,32.3-7.9,20.66-11.94,23.68-40.92,5.24-56a97.74,97.74,0,0,0-22.75-13.38c-37.24-16.28-67.12-41.17-90.3-74.51-18.46-26.55-44.07-40.76-76.48-42.5-57-3.07-105.17,46.25-100.75,103.14,3.95,50.88,47.53,91.28,98.51,91.32Q506.65,701.24,544.46,701.21Z"/><path class="cls-2" d="M578.45,250.22c39.2-21.51,77.62-42.63,116.08-63.65,11-6,21.56-13,34.42-14.86,27.31-3.83,57.44,14.09,62.19,46.38,4,27.09-16.58,55.26-44.36,59.79-17.75,2.89-33.06-1.92-46.33-13.76-9.42-8.39-17.78-9.36-29.1-3.14l-59.44,32.65c-2.23,1.22-4.48,2.39-7.37,3.92-4.42-8.05-8.72-15.9-13-23.75S583,258.38,578.45,250.22Zm158.89,7.49a32.29,32.29,0,0,0,32.44-32.11c.16-17.64-14.28-32.28-32.13-32.59a32.23,32.23,0,0,0-32.53,32C705,243.51,718.91,257.62,737.34,257.71Z"/><path class="cls-2" d="M531.05,276.31l28.29-15.58c1.15,1.9,2.28,3.63,3.28,5.44C571,281.3,580.21,296,587.34,311.7c8.59,18.89,15.57,38.52,22.81,58,2.35,6.29-1.2,12.44-7.25,14.88s-12.14.16-15.81-6.44c-10.7-19.21-21.26-38.5-31.86-57.77C547.28,305.92,539.37,291.47,531.05,276.31Z"/><path class="cls-2" d="M277.49,668.69,334,649.63l14.07,28.59c-16.06,4.93-32.1,10-48.25,14.71-4.76,1.39-9.07-.4-11.64-4.83C284.46,681.69,281,675.12,277.49,668.69Z"/><path class="cls-2" d="M576.57,515.89l42.33-34.61c3.62,6.66,7.6,13.36,11,20.37,2.32,4.82.57,9.24-3.36,12.65-10.08,8.75-20.22,17.42-31.15,26.83C588.84,532.37,582.71,524.14,576.57,515.89Z"/><path class="cls-2" d="M544.82,679.75q-36.66,0-73.32,0c-40.41,0-72.66-27.2-79.42-66.92-6.25-36.76,22.17-76.58,60-83.07,32.26-5.54,58.76,4.81,77.65,31.88,25.68,36.8,58.69,64.35,99.94,82.08a83,83,0,0,1,15.46,8.51c8.71,6.22,8,18.59-1.85,22.44a77.9,77.9,0,0,1-25.78,4.87C593.31,680.16,569.06,679.75,544.82,679.75Zm-50.87-22c21,.22,37.73-16.33,38-37.58.24-20.49-16.64-37.62-37.26-37.8-21-.18-37.83,16-38.12,36.74C456.25,640.84,472.43,657.55,494,657.77Z"/><path class="cls-2" d="M747.92,226a10.75,10.75,0,0,1-11.25,10.28,10.72,10.72,0,0,1,1-21.41A10.35,10.35,0,0,1,747.92,226Z"/><path class="cls-2" d="M494.06,604.1A15.6,15.6,0,0,1,510.15,620c0,9.23-6.77,16.11-15.91,16.19a16.05,16.05,0,1,1-.18-32.1Z"/></g></g></svg>