<svg xmlns="http://www.w3.org/2000/svg" viewBox="0 0 1000 1000"><defs><style>.cls-1{fill:#2790a5;}.cls-2{fill:#fff;}</style></defs><g id="Capa_2" data-name="Capa 2"><g id="Layer_1" data-name="Layer 1"><circle class="cls-1" cx="500" cy="500" r="500"/><path class="cls-2" d="M534.27,772.88c15.05-20.64,17.36-42.21,16.85-65,16.57-2.07,31.61-7.71,39.73-22.25a68.52,68.52,0,0,0,8.67-30.79c.51-24.14-17.48-41.06-47.88-47.46V576c16.71-1.8,32.15-8.16,40.26-23.64a67.81,67.81,0,0,0,7.57-31.1c-.31-23.31-18.89-40-47.74-45.34v-65.1h11.06q77.87,0,155.72,0c32.21,0,52.64,20.39,52.67,52.69q.09,128.29,0,256.6c0,32.31-20.46,52.72-52.63,52.74q-86.07.07-172.16,0ZM731.67,526.4c.11-27.37-21.94-49.74-49.08-49.77S632.88,499.25,633,526.16c.09,26.49,22.33,48.91,48.82,49.23A49.42,49.42,0,0,0,731.67,526.4Zm0,131.23a49.44,49.44,0,0,0-49.53-49.33c-26.55.17-48.86,22.36-49.16,48.89-.3,26.89,22.3,49.77,49.27,49.88A49.43,49.43,0,0,0,731.67,657.63Z"/><path class="cls-2" d="M517.6,487.3V650H222.87V487.3ZM386.19,585.67a21.28,21.28,0,0,1,3-1.2c6.57-.1,13.13-.13,19.69-.27,11.79-.25,19-6.67,18.81-16.64-.2-9.38-7.42-15.9-18.37-16.23-7.47-.22-15,0-23.11,0,0-8.65.31-15.58-.07-22.47-.62-11.34-6.93-17.91-16.56-17.87-9.78,0-15.72,6.54-16.12,18.07-.24,7.17,0,14.36,0,22.29-9.17,0-16.81-.28-24.42.06-10.72.48-17.49,7.55-17.1,17.24.38,9.32,6.93,15.28,17.48,15.56,7.56.2,15.14,0,24,0,0,8.65-.17,16.23,0,23.8.33,11.69,5.95,18.28,15.56,18.63,10.06.38,16.62-6.42,17.16-18.38C386.47,600.68,386.19,593.08,386.19,585.67Z"/><path class="cls-2" d="M221.78,452.82c0-18.62-.94-36.17.22-53.58,1.79-26.82,22.54-45.19,49.55-45.47,4.69,0,9.37,0,15.39,0V322c4.77-.3,8.26-.72,11.75-.72,47.12,0,94.24.33,141.36-.3,10.66-.14,13.35,3.54,12.37,13.12-.62,6.07-.12,12.25-.12,19.67,5.22,0,9.49,0,13.75,0,28.22.14,48.61,17.08,51.21,44.9,1.66,17.65.31,35.58.31,54.16Z"/><path class="cls-2" d="M517,685c0,16,1.41,31.44-.32,46.5-2.78,24.18-23.16,41.28-47.6,41.35q-99.24.3-198.48,0c-25.81-.08-46.41-18.69-48.44-44.29-1.12-14.12-.2-28.41-.2-43.57Z"/><path class="cls-2" d="M369.7,211.11c25.95,0,51.91-.05,77.86,0,15,0,20.61,5.59,20.71,20.31.08,12.8.13,25.59,0,38.39-.14,12.45-5.53,18.93-17.57,19q-81.15.44-162.31,0c-11.37-.06-17.3-6.73-17.51-18.1-.24-13.15-.15-26.32,0-39.48.12-14.12,5.93-20,19.91-20.09C317.05,211,343.37,211.11,369.7,211.11Z"/><path class="cls-2" d="M551.72,542.66v-33c9.83,1.8,15.09,6.92,15.23,16.15S561.62,540.14,551.72,542.66Z"/><path class="cls-2" d="M552,641.59c9.51,1.33,14.66,6.56,15,15.71.32,9.35-5.19,14.37-15,17Z"/><path class="cls-2" d="M682.72,509.61a16.4,16.4,0,0,1-.57,32.8,16.85,16.85,0,0,1-16.23-16.14C665.75,517.3,673.65,509.47,682.72,509.61Z"/><path class="cls-2" d="M682.25,641.28a16.41,16.41,0,0,1,.37,32.81,16.83,16.83,0,0,1-16.68-15.67C665.48,649.47,673.15,641.41,682.25,641.28Z"/></g></g></svg>