<svg xmlns="http://www.w3.org/2000/svg" viewBox="0 0 1000 1000"><defs><style>.cls-1{fill:#2790a5;}.cls-2{fill:#fff;}</style></defs><g id="Capa_2" data-name="Capa 2"><g id="Layer_1" data-name="Layer 1"><circle class="cls-1" cx="500" cy="500" r="500"/><path class="cls-2" d="M845.87,554.35h0c-30.65-36.76-71-57.44-116.31-69.57,4.34,22.1,12.77,43.3,15.19,66a194.79,194.79,0,0,1-2.17,56.58c-2.3,12.9-18.77,22.86-31.67,20.94-13.79-2.17-26.95-18.13-24.52-32.18,7.79-44.83-5.24-84.17-29.89-120.82-2.17-3.07-5.23-5.75-5-10a396.69,396.69,0,0,0-88.63-5.88c11.75,24.27,24.13,48,29.5,75a249.89,249.89,0,0,1,4.47,60.8c-.89,18.51-14.05,31-30.78,30.39S538.87,613.27,540,593.6c2.18-39.33-8.17-75-28.73-108C530,463.29,544.35,444,554.06,430.38c47.77-67.13,51-94.1,53.26-105.87,7.92-40.36-15.45-75-56.19-83.4-54.41-11.24-102.56,6.13-148.92,32.31,41,12.39,71.39,39.46,97.19,71.9,11,13.93,7.66,31-5.24,40.49-11.36,8.56-29.62,7-38.82-4.72-28.86-37.3-66.16-59.27-112.9-65.4-1.15-.12-2.17-1.78-3.32-2.68-26.44,15.2-47.9,36.27-69.22,57.73,25,9.2,50.57,16.73,72.92,31.8a247.89,247.89,0,0,1,46.49,40C403.1,458,403.49,475.34,390.59,487c-12.52,11.37-28.74,9.71-42.66-5.62q-50.76-55.93-126.31-57a381.26,381.26,0,0,0-40.49,58.11c17,9.45,36,14.56,52.37,25.55a259.32,259.32,0,0,1,49.42,42.78c12.9,14.43,12.78,32.18.39,43.3-11.5,10.09-29.76,8.43-42-4.86-24.14-26.31-52.11-45.85-87.75-52.36-10.08,22.61-17,46.36-19.28,71-2.94,31,.26,60.79,24.52,84,15.71,16.73,35.51,21.2,57.35,18.39,28-3.58,52.49-16.22,76.37-30.53,4.73-2.81,9.07-7,15.45-6,7.67-13.92,23.25-18.26,34.23-28.22,10.2,10.78,24.12,9.4,36.8,10.87-12.69-1.42-26.62-.09-36.81-10.84-10.95,10-26.49,14.33-34.21,28.19,7.84,6.66,17.69,9,27.07,12C399.72,707,467,708.8,534,711a1128.17,1128.17,0,0,0,179.63-8.28c37.84-4.82,75.19-12.32,109.2-31C871.14,645.21,880.53,597.22,845.87,554.35ZM398.51,596.8c14.81-13.92,29.12-28.36,46-40,.26,13.28,1.28,26.7.51,39.85-.76,14.94-12.26,27.71-25.16,28.86-13.41,1.15-24.52-2.55-28.86-17.24C391,602.8,395.18,600,398.51,596.8Zm317.52,58c14.19-2.69,28.3-5.93,42.25-10,5.19-1.48,10.3-3.18,15.34-5-5,1.86-10.15,3.57-15.35,5.07C744.32,648.88,730.22,652.11,716,654.79Zm116.34-54.94a56.35,56.35,0,0,0,11-37.66,13.13,13.13,0,0,1,.48-4.73,13,13,0,0,0-.43,4.71A56.06,56.06,0,0,1,832.37,599.85Z"/></g></g></svg>