<svg xmlns="http://www.w3.org/2000/svg" viewBox="0 0 1000 1000"><defs><style>.cls-1{fill:#2790a5;}.cls-2{fill:#fff;}</style></defs><g id="Capa_2" data-name="Capa 2"><g id="Layer_1" data-name="Layer 1"><circle class="cls-1" cx="500" cy="500" r="500"/><path class="cls-2" d="M538.86,267.3C562.6,365,623.58,425.35,721.33,450.19c-56.55,148.54-175.81,204.53-322.2,222.66-1.19,15-2.52,29.76-3.51,44.53-1.82,27-3.56,54-5.06,81.08-.58,10.31-3.08,19.45-14.45,21.79-11.54,2.39-17.27-5.13-21.32-14.71-15.56-36.8-30.94-73.67-47.22-110.15-2.59-5.8-8.6-11.57-14.44-14.16-35.82-15.89-72-30.94-108.15-46.08-9.44-3.95-17.69-9.09-15.9-20.65,1.86-12,11.51-14.88,22.18-15.55,38.06-2.4,76.1-5.19,114.18-7.11,9-.45,11.1-3.69,12.19-12.14,11.11-86.59,36.56-167.4,97.8-232.9C449.65,310.21,491.61,285.26,538.86,267.3Z"/><path class="cls-2" d="M574,253.27c33.1-5.45,66.62-11.7,100.37-16.22,18-2.42,36.5-2.3,54.78-2.46,14-.11,24.94,9.18,25.09,23,.6,53.87-6.22,106.84-21.52,158.52C654.81,406.46,574.33,325.14,574,253.27Zm75,70.37c.14,10.14,7.3,16.93,17.47,16.57a16.56,16.56,0,0,0,16.22-16.94,17.24,17.24,0,0,0-17.76-16.84C655.62,306.86,648.81,314.22,648.94,323.64Z"/></g></g></svg>