<svg xmlns="http://www.w3.org/2000/svg" viewBox="0 0 1000 1000"><defs><style>.cls-1{fill:#2790a5;}.cls-2{fill:#fff;}</style></defs><g id="Capa_2" data-name="Capa 2"><g id="Layer_1" data-name="Layer 1"><circle class="cls-1" cx="500" cy="500" r="500"/><path class="cls-2" d="M543.49,686.05c-56.33,0-112.66-.17-169,.19-8.62,0-12.59-2.6-14.86-11Q324.27,543.42,288.3,411.79q-12.76-47-25.37-94.14c-3.11-11.65-6.5-14.47-18.67-14.49-18.38,0-36.76-.11-55.14,0-7.22.06-12.55-2.32-12.92-10.11-.38-8.09,5.23-10.66,12.26-10.68q40-.11,80,0c7.72,0,12.51,3.66,14.46,11.62,3.87,15.77,8.36,31.39,12.56,47.08,4.15,15.5,13.19,22.41,29.66,22.41h426c31.21,0,46.23,18.28,38.3,48.29C772.73,475.25,755.34,538.5,738,601.75c-5,18.06-17.16,26.84-35.9,26.84q-157.43,0-314.85,0c-12.36,0-13.44,1.48-10,13.49,5.8,20.18,5.8,20.18,27,20.18q153.87,0,307.73.14c4,0,10.85,1.22,11.51,3.37,1.64,5.32,1.27,11.71-.06,17.25-.41,1.7-6.51,2.86-10,2.88-38,.21-75.9.13-113.85.13ZM652,564.55c5,0,10.08.08,15.12,0,10.74-.21,15.71-5.49,15.94-16.81.48-24-2.58-30.49-15.39-31-10.06-.39-20.16-.35-30.22,0-9.37.33-14.56,5.93-14.83,15.31-.16,5.63-.13,11.26,0,16.89.22,10.69,5.09,15.39,16.05,15.58C643.06,564.61,647.5,564.54,652,564.55ZM541.79,468.71c33.14,1.82,30.83-6.15,30.44-32.53-.14-9.85-5.86-15.1-15.8-15.37-8.87-.24-17.76-.12-26.63,0-13,.13-17.65,4.72-17.82,17.58C511.58,468,512.24,468.71,541.79,468.71Zm110.9,0c30.28,1.33,31-3.58,30.32-31,0-.29,0-.59,0-.89-.36-10.13-5.85-15.74-16.14-16-8.88-.22-17.78-.12-26.67,0-12.74.13-17.55,5.06-17.65,17.85C622.32,468.18,622.87,468.73,652.69,468.73ZM431.27,565.12c30.28.07,31.91-1.57,30.93-31.12-.37-11.14-5.11-16.09-16.4-16.55-7.08-.3-14.19-.08-21.29-.07-19.64,0-22.86,3.21-22.85,22.47,0,3,0,5.92,0,8.87.24,10.86,4.83,15.83,15.4,16.36C421.8,565.32,426.54,565.12,431.27,565.12ZM542.73,565v.17c3.55,0,7.09,0,10.64,0,15.21-.1,19.31-4.24,19.33-19.49,0-27.27-1-27.74-28.52-28.45-34.84-.89-32,5.81-31.85,33.2a8.81,8.81,0,0,0,0,.89c.9,8.14,5.21,13.09,13.55,13.62C531.48,565.25,537.12,565,542.73,565ZM431.32,468.7c4.73,0,9.47.09,14.2,0,10.27-.26,15.26-5,15.57-15.07q.27-8.87,0-17.74c-.29-9.38-4.8-14.57-13.9-14.95-10.63-.44-21.3-.39-31.93,0-6.77.25-12.93,3.73-13.38,10.69-1.87,28.6-4.49,39.44,27.67,37.1C430.14,468.67,430.73,468.71,431.32,468.7Z"/><path class="cls-2" d="M665.05,703.38c23.1-.21,42.6,19,42.76,42a42.46,42.46,0,0,1-84.91.59A42.73,42.73,0,0,1,665.05,703.38Z"/><path class="cls-2" d="M376.55,745.41a41.87,41.87,0,0,1,42.34-42c23.5.17,41.9,18.89,41.85,42.57a41.76,41.76,0,0,1-42.39,41.91C394.66,787.68,376.47,769.21,376.55,745.41Z"/></g></g></svg>