<svg xmlns="http://www.w3.org/2000/svg" viewBox="0 0 1000 1000"><defs><style>.cls-1{fill:#2790a5;}.cls-2{fill:#fff;}</style></defs><g id="Capa_2" data-name="Capa 2"><g id="Layer_1" data-name="Layer 1"><circle class="cls-1" cx="500" cy="500" r="500"/><path class="cls-2" d="M228.22,609.24a38.49,38.49,0,0,1,3.14-15c4.13-9.45,14.11-21.6,38.42-26.37l5-1,4.78,1.3c13.67,3.69,24.42,12.37,32.77,26.37,7.92,13.13,19.54,23.88,36,33,19.75-27.45,53.61-45,89.21-45,3.58,0,7.27.21,10.85.54l18.12,1.84.11,2.17,2.39.33c10.53,1.41,20.4,3.91,30.06,6.19,10.74,2.71,20.94,5.31,30.93,6.07l5.64.44,3,2q9.76-17.75,19.21-35.49a19.07,19.07,0,0,0,1.09-2c18.44-30.71,25-64.46,25.39-99.84a22.52,22.52,0,0,0-.33-2.71c-.32-3.69-.65-7.28-1.08-10.86a23.16,23.16,0,0,1-.44-2.71c-.43-3.15-1-6.19-1.51-9.33-.66-3.69-1.52-7.38-2.39-11.07,0-.22-.11-.44-.11-.65-.87-3.37-1.85-6.84-2.93-10.2a158.31,158.31,0,0,0-5.43-15.2c-.87-2.17-1.73-4.23-2.71-6.29a177.57,177.57,0,0,0-10.85-20.51c-2.17-2.93-4.34-5.86-6.51-8.69-37.55-48-103.1-59.36-152.37-27.67a66.16,66.16,0,0,0-5.75,3.91A23.14,23.14,0,0,1,381.45,346c-4.12.32-8-.87-11.94-4.24-1.41-1-2.82-2-4.34-2.82C337,320.35,306.68,316,273.8,326.43a106,106,0,0,0-39.4,18.67,113.11,113.11,0,0,0-28.54,32.45c-33.1,55.34-36.35,113.51-9.11,171.68C206.3,569.63,217.15,589.49,228.22,609.24Z"/><path class="cls-2" d="M298.76,299.63h.11a85.43,85.43,0,0,1,9.11-.44,119.16,119.16,0,0,1,50.46,11.29l6.73,3.25a142.47,142.47,0,0,1,16.28,9.88A112.65,112.65,0,0,1,397.73,314V224.31a16.28,16.28,0,0,0-32.56,0v44.93c-.65-1.19-1.41-2.5-2.28-3.8-18.77-29.19-53.17-50.79-90.83-51.87-16.17-.44-28.11-.76-32.34,6.29C230.93,234.73,258.06,278.36,298.76,299.63Z"/><path class="cls-2" d="M762.69,676.64c-8.57-3.15-17.9-4.45-26.8-6.62L731,740c-3.79,4-3.69,12.59-11.61,11.51-6-.76-8-5.86-7.92-11.62-.87-24.52,5.43-48.61,5.21-73.14-16.28-4-32.56-7.92-48.84-12-30.71-7.81-62-12.91-92.35-22.14l.11,1c-1.09,10,1.41,20.19-2,30.06-1.74,5.21-3.59,10.85-10.1,10-6.07-.76-7.81-6.08-7.7-11.94.32-10.42-.87-20.95,2.38-31.26a35.16,35.16,0,0,0-8.57-2.93c-7.27-1.62-14.87-2-21.27-6.18-21.27-1.63-41.35-9.55-62.29-12.37a162.47,162.47,0,0,1-1,21.81c-1.19,11.5-2.93,22.9-4.23,34.4-.65,6.08-3.8,11.4-10.74,10.53-6.41-.76-8.9-5.64-8.58-12.37.55-12.48,2.93-24.64,4.13-36.9a120.93,120.93,0,0,0,.54-21.71c-36.25-3.69-72.6,16.17-87.36,47.54l-2.61,3.25c-25.5-10.74-48-25.5-62.5-49.7-4.89-8-10.64-14.11-19.87-16.6C250,593.83,243.63,607.61,256.11,628c5.32,8.57,11.5,16.49,18.34,26.15-9.12-1.3-16.17-2.39-23.23-3.36l-26.15-2.61c-6.95-.76-14-1.41-20.94-2-12.38-1-22.47,7.27-24,19.21-1.52,11.18,5.86,21.16,17.8,23.55,5.53,1.19,11.18,1.62,16.82,2.28,17.47,2.06,34.94,4,53.94,6.29-9.88,9.44-18.89,17-26.59,25.61-8.79,9.77-8.14,22.25.32,30.5s21.92,8.9,30.61-.33c20.83-22.35,47-33.64,76.07-39.83,13.24,47.75,52.2,75.64,104.62,70.11-1.31-13.89,4.12-27.35,2.49-41.24,3.69-5.86,1.63-12.59,2.72-18.77,1.08-5.65,4.55-10,10.42-9.88,6.18.22,8.46,5,8.79,10.85.43,6.08-1,11.94-2.39,17.69-.87,13.78-1.74,27.46-2.61,41.24H517c.86-13.67,1.62-27.46,2.49-41.13,5.54-8.46,11.94-9.55,19.43-2.39-.87,14.44-1.63,29-2.5,43.41h92.46c.87-14.43,1.74-29,2.5-43.41,8.79-9.87,10.74-9.87,19.43-.11-.76,14.55-1.63,29-2.5,43.52,32.77,0,65.66.87,98.43,0,32.12-.87,54.15-27.35,52.09-60.45C796.88,699.75,784.07,684.56,762.69,676.64Z"/><path class="cls-2" d="M574.08,362.35l.54.65.44.87c15.62,25.18,25.28,53,29.41,84.65a94.3,94.3,0,1,1,42.21,179c8.9,2,17.69,3.91,26.48,6.19,11,2.82,21.92,5.43,32.88,8.14l9.88,2.39.11-1.31L741,649c2.71.65,5.42,1.2,8,1.74,1,.22,2,.43,3,.65,56.54-52.63,70.86-163.65,10.31-225C743.05,407,732.52,382.54,726,356c-5.21-21.05-2.71-42.76-6.94-63.81a103.05,103.05,0,0,0-21.38-45.8c-32.78-40.15-86.49-34.73-114.6,11.4-14.76,24.31-16,51.33-16.82,78.57-.76,4.45-1.41,8.9-2.17,13.24a47.18,47.18,0,0,1,3,3.69C569.52,356.28,571.8,359.31,574.08,362.35Z"/></g></g></svg>